<svg width="222" height="312" viewBox="0 0 222 312" fill="none" xmlns="http://www.w3.org/2000/svg">
<g filter="url(#filter0_d_238_4)">
<path d="M19.8394 281.993C19.8394 281.993 5.56038 282.958 9.22661 291.448C12.8928 299.939 69.4309 294.922 74.641 294.343C74.641 294.343 72.1326 290.29 75.413 290.677C78.6934 291.062 81.9738 294.729 81.9738 294.729C81.9738 294.729 83.1315 289.905 85.2542 290.677C87.3768 291.448 87.9555 295.308 87.9555 295.308C87.9555 295.308 95.6741 290.677 100.884 291.256C106.094 291.835 103.392 296.273 103.392 296.273C103.392 296.273 114.584 291.256 117.093 295.308C119.601 299.36 118.058 300.325 118.058 300.325C118.058 300.325 163.79 304.956 180.192 302.64C180.192 302.64 171.508 297.43 174.21 295.307C176.911 293.185 182.7 299.167 182.7 299.167C182.7 299.167 182.121 293.571 184.63 293.571C187.138 293.571 188.296 298.974 188.296 298.974C188.296 298.974 189.261 293.764 191.962 294.343C194.664 294.922 196.979 298.202 197.172 297.623C197.365 297.044 208.364 296.465 214.153 292.799C219.942 289.133 220.135 284.309 208.171 282.958C196.207 281.607 162.439 281.993 162.439 281.993C162.439 281.993 160.703 270.415 156.843 270.223C152.984 270.03 150.09 280.064 150.09 280.064C150.09 280.064 150.09 272.924 144.301 271.959C138.512 270.994 134.46 276.59 134.46 277.362C134.46 278.134 132.723 275.24 128.285 276.59C123.847 277.941 120.759 283.344 120.759 283.344L19.8394 281.993Z" fill="#59924B"/>
<path d="M22.4641 252.588C22.4641 252.588 22.6538 264.157 22.8435 267.95C23.0332 271.743 19.9987 286.915 21.3262 287.864C22.6538 288.812 48.0674 289.381 49.774 288.432C51.481 287.484 51.2913 284.829 51.2913 284.829C51.2913 284.829 44.8432 276.864 42.1881 273.071C39.5329 269.278 39.9123 256.381 40.8605 252.588C41.8084 248.795 22.4641 252.588 22.4641 252.588Z" fill="#E28E66"/>
<path d="M42.1875 273.071C40.9021 271.235 40.3304 267.266 40.1878 263.229C39.0687 263.36 37.947 263.472 36.8188 263.541C33.2784 263.755 29.7345 263.579 26.2284 263.045C25.0262 262.862 23.8295 262.611 22.6603 262.274C22.7165 264.553 22.7797 266.684 22.843 267.95C23.0327 271.743 19.9979 286.915 21.3254 287.864C22.6533 288.812 48.0668 289.381 49.7735 288.432C51.4804 287.484 51.2907 284.829 51.2907 284.829C51.2907 284.829 44.8426 276.864 42.1875 273.071Z" fill="white"/>
<path d="M49.7738 288.432C51.4807 287.484 51.291 284.829 51.291 284.829C51.291 284.829 44.8426 276.864 42.1875 273.071C41.9261 272.697 41.6952 272.233 41.4899 271.7C41.461 271.705 41.4402 271.708 41.4402 271.708C41.2757 271.462 39.7127 266.444 37.574 265.374C35.4353 264.305 29.9234 263.894 28.7717 266.444C27.6201 268.994 26.3862 271.791 24.9056 271.873C24.1052 271.917 23.307 271.073 22.7405 270.287C22.2332 275.905 20.1937 287.055 21.326 287.863C22.6536 288.812 48.0671 289.381 49.7738 288.432Z" fill="#EFB33F"/>
<path d="M27.9492 285.199C25.2463 285.362 22.6565 284.92 21.0538 284.528C20.9294 286.33 20.9703 287.609 21.3257 287.863C22.6536 288.812 48.0671 289.381 49.7738 288.432C51.4807 287.484 51.291 284.829 51.291 284.829C51.291 284.829 47.4459 282.649 43.5792 282.156C39.7127 281.662 32.0627 284.953 27.9492 285.199Z" fill="white"/>
<path d="M72.5319 250.881C71.9628 251.261 71.2044 266.053 71.0147 269.088C70.825 272.122 67.4111 285.398 68.1698 286.915C68.9283 288.432 111.827 288.02 116.053 287.668C118.027 287.503 118.238 285.208 118.618 283.881C118.997 282.553 114.256 281.036 114.256 281.036C114.256 281.036 90.1695 268.519 88.6526 266.622C87.1356 264.726 89.4113 252.778 89.9801 250.881C90.5489 248.985 72.5319 250.881 72.5319 250.881Z" fill="#E28E66"/>
<path d="M114.256 281.036C114.256 281.036 90.1695 268.519 88.6526 266.622C88.2539 266.124 88.1186 264.928 88.1444 263.406C82.698 265.083 76.8123 265.127 71.3498 263.372C71.1961 265.913 71.0758 268.111 71.0146 269.088C70.825 272.122 67.4114 285.398 68.1701 286.915C68.9286 288.432 111.827 288.019 116.053 287.667C118.027 287.503 118.238 285.208 118.618 283.88C118.997 282.553 114.256 281.036 114.256 281.036Z" fill="white"/>
<path d="M116.053 287.668C118.027 287.503 118.238 285.208 118.618 283.881C118.997 282.553 114.256 281.036 114.256 281.036C114.256 281.036 90.1698 268.519 88.6529 266.622C88.6075 266.566 88.5662 266.499 88.5279 266.425C87.5493 266.219 84.8857 266.013 83.2308 269.323C81.4238 272.936 75.1109 271.66 70.9816 269.456C70.5852 273.063 67.4389 285.452 68.1704 286.915C68.9283 288.432 111.827 288.02 116.053 287.668Z" fill="#EFB33F"/>
<path d="M118.618 283.881C118.618 283.881 114.819 282.403 110.213 283.555C105.606 284.706 100.506 285.529 93.7602 285.776C87.0144 286.022 76.0734 280.511 69.4102 280.099C69.2494 280.09 69.0934 280.085 68.938 280.082C68.2989 283.376 67.8405 286.256 68.1701 286.915C68.9286 288.432 111.827 288.02 116.053 287.668C118.027 287.503 118.238 285.208 118.618 283.881Z" fill="white"/>
<path d="M4.39004 104.584C4.39004 104.584 3.92781 106.664 6.93157 108.127C9.93534 109.591 13.0164 104.584 13.0934 101.811C13.1704 99.0386 5.62246 100.964 4.39004 104.584Z" fill="#202020"/>
<path d="M75.5828 104.333C75.5828 104.333 112.028 153.068 115.418 163.663C118.809 174.257 102.281 249.267 101.01 255.623C99.7384 261.98 71.4388 261.366 71.0149 255.433C70.591 249.5 80.2446 182.309 78.9732 179.343C77.7019 176.376 60.7507 148.83 60.7507 148.83C60.7507 148.83 63.8973 168.542 63.0496 177.865C62.2021 187.188 50.156 255.623 47.6133 258.166C45.0706 260.709 27.2717 261.133 21.3388 257.319C15.406 253.505 24.3054 181.462 24.729 172.986C25.1529 164.511 0.554014 121.126 5.86102 105.313C11.1677 89.501 75.5828 104.333 75.5828 104.333Z" fill="#EFB33F"/>
<path d="M22.8502 93.931C22.6386 92.8847 21.0385 93.3276 21.2501 94.3721C22.1002 98.5729 22.9339 102.905 22.333 107.2C22.0666 109.101 21.5253 110.987 20.6067 112.678C19.6433 114.451 18.2508 115.876 16.8327 117.288C16.0749 118.043 17.2481 119.217 18.0063 118.461C19.4785 116.995 20.9354 115.495 21.9568 113.668C22.9852 111.83 23.6166 109.783 23.9254 107.705C24.6125 103.083 23.7668 98.4596 22.8502 93.931Z" fill="#D89A2C"/>
<path d="M34.6402 172.439C32.5787 165.844 30.3982 159.286 28.097 152.771C25.7952 146.256 23.3737 139.784 20.8342 133.358C19.4036 129.739 17.9355 126.136 16.4314 122.548C16.228 122.063 15.4244 122.276 15.6311 122.768C18.3023 129.141 20.8585 135.561 23.2949 142.027C25.7311 148.493 28.0484 155.003 30.2445 161.554C31.4813 165.243 32.6792 168.945 33.8401 172.659C33.9988 173.167 34.7997 172.95 34.6402 172.439Z" fill="#D89A2C"/>
<path d="M33.3378 176.326C32.5257 176.363 31.9751 176.91 31.7169 177.654C31.4019 178.561 31.6107 179.443 31.9429 180.308C32.1513 180.851 32.4057 181.404 32.4725 181.987C32.5439 182.611 32.3036 183.142 32.0082 183.674C31.4248 184.726 30.9748 185.805 30.6739 186.971C30.0299 189.467 29.755 192.077 29.3516 194.62C28.928 197.29 28.505 199.96 28.0817 202.63C26.3722 213.41 24.6494 224.19 23.1968 235.009C22.3924 241 21.3632 247.133 22.1278 253.182C22.1939 253.704 23.0244 253.711 22.9577 253.182C22.2946 247.938 23.0244 242.662 23.7024 237.458C24.3938 232.152 25.1576 226.855 25.9568 221.564C27.5328 211.132 29.212 200.716 30.8727 190.297C31.0867 188.953 31.3112 187.602 31.7318 186.303C31.9385 185.665 32.1958 185.049 32.5187 184.461C32.7889 183.969 33.1027 183.478 33.2351 182.926C33.5348 181.678 32.8621 180.588 32.5105 179.437C32.2942 178.727 32.3027 177.203 33.3381 177.156C33.8694 177.132 33.8726 176.302 33.3378 176.326Z" fill="#D89A2C"/>
<path d="M81.4767 214.141C80.1293 225.392 78.675 236.631 77.1103 247.855C76.6726 250.995 76.2265 254.133 75.7719 257.27C75.6967 257.792 76.4961 258.018 76.5722 257.49C78.1975 246.27 79.7159 235.034 81.1255 223.784C81.5283 220.571 81.9217 217.357 82.3066 214.141C82.3699 213.612 81.5397 213.616 81.4767 214.141Z" fill="#D89A2C"/>
<path d="M75.4564 215.098C79.6527 214.928 85.5168 214.504 88.6907 213.446C93.9918 211.679 98.1888 208.145 98.1888 208.145L76.5714 205.928C76.2137 208.908 75.8375 211.992 75.4564 215.098Z" fill="#202020"/>
<path d="M134.835 79.2072C134.835 79.2072 139.568 94.6891 138.726 110.266C138.148 120.955 112.028 143.604 112.311 146.429C112.593 149.254 116.196 156.524 117.396 159.285C118.596 162.045 117.636 170.327 117.516 171.528C117.396 172.728 116.196 172.608 116.196 172.608C116.196 172.608 115.716 174.288 114.035 174.408C112.355 174.528 112.115 172.608 111.875 168.887C111.635 165.166 112.235 164.206 111.275 162.285C110.315 160.365 107.194 156.284 107.194 156.284C107.194 156.284 108.154 159.404 108.274 161.925C108.394 164.446 108.754 170.327 107.434 170.927C106.114 171.527 103.953 170.567 103.833 167.086C103.713 163.606 103.113 157.724 101.433 155.564C99.7523 153.403 96.1513 151.363 95.1911 151.843C94.231 152.323 93.9417 157.824 91.5413 158.064C89.1406 158.304 87.3403 155.184 87.8203 153.503C88.3004 151.823 89.5498 149.922 90.27 147.521C90.9901 145.121 91.7102 142.6 95.3112 139.12C98.9118 135.639 100.472 134.919 102.873 132.518C105.274 130.118 114.636 108.753 114.996 108.033C115.356 107.312 112.595 91.3487 112.595 91.3487C112.595 91.3487 133.618 77.9915 134.835 79.2072Z" fill="#E28E66"/>
<path d="M60.1843 46.5976C60.1843 46.5976 73.9892 37.7717 96.7342 40.6001C112.789 42.5965 122.805 51.2928 127.624 55.4236C132.443 59.5541 139.683 92.6265 138.994 95.7245C138.306 98.8226 113.749 101.852 112.028 101.508C110.307 101.164 109.069 87.7004 106.66 89.0771C104.25 90.4538 86.179 104.92 79.2947 113.525C72.4104 122.131 61.1436 124.572 32.7808 108.571C13.0164 97.4215 4.39008 104.584 4.39008 104.584C4.39008 104.584 8.2015 92.4676 21.3386 81.4493C29.9898 74.1932 44.3429 57.0076 60.1843 46.5976Z" fill="#F0404C"/>
<path d="M134.839 41.5328C134.839 41.5328 140.827 40.4578 142.823 36.6195C144.819 32.7808 141.595 28.3283 142.363 24.9504C143.13 21.5726 144.819 18.9625 142.977 14.9705C141.134 10.9785 135.76 9.13598 133.457 5.45102C131.154 1.76606 127.776 1.1519 125.32 1.30559C122.863 1.45898 118.104 0.384351 114.726 0.538037C111.348 0.691723 108.124 3.76223 106.895 5.75839C105.667 7.75426 102.443 8.98258 100.139 11.5929C97.8365 14.2029 98.297 16.3525 98.4504 18.8091C98.6041 21.2658 95.3796 24.3366 95.8404 27.4074C96.3008 30.4782 99.9858 38.4622 106.742 40.6118C113.497 42.7614 130.386 45.5248 134.839 41.5328Z" fill="#202020"/>
<path d="M101.005 38.2444C99.122 39.7511 99.1855 41.8474 92.4051 41.0939C85.6251 40.3407 92.8586 68.943 100.015 72.7099C107.172 76.4766 112.446 51.2395 112.446 51.2395L101.005 38.2444Z" fill="#E28E66"/>
<path d="M101.097 41.6217C100.046 44.1966 99.5874 48.7376 99.8041 51.5276C100.034 54.4951 101.522 57.69 103.453 59.9324C104.906 61.6194 106.79 62.8512 109.033 63.064C111.174 57.3182 112.446 51.2396 112.446 51.2396L103.26 39.5483C102.485 40.7705 101.64 40.2901 101.097 41.6217Z" fill="#202020"/>
<path d="M105.052 32.9348C105.052 32.9348 102.903 25.7186 98.8131 27.0327C95.1273 28.2171 96.4121 40.4777 100.734 40.9578C100.734 40.9578 100.897 59.5638 111.808 61.8003C121.788 63.8459 127.639 56.6417 131.001 51.3599C134.362 46.078 137.707 36.8768 137.707 36.8768C137.707 36.8768 133.764 39.5374 129.465 38.3091C125.764 37.2518 125.013 32.0141 119.946 34.6242C116.912 36.1868 115.493 31.7068 112.883 31.7068C111.59 31.7065 105.052 32.9348 105.052 32.9348Z" fill="#E28E66"/>
<path d="M119.005 37.7471C116.441 37.2128 113.83 37.1724 111.249 37.6124C110.867 37.6777 110.653 38.1478 110.749 38.4944C110.86 38.8987 111.248 39.0606 111.631 38.9953C113.944 38.601 116.328 38.6516 118.624 39.13C119.524 39.3173 119.909 37.9353 119.005 37.7471Z" fill="#202020"/>
<path d="M133.664 45.7615C133.035 45.2106 132.405 44.6594 131.775 44.1085C131.631 43.9823 131.465 43.8983 131.268 43.8983C131.092 43.8983 130.882 43.9764 130.761 44.1085C130.636 44.2452 130.542 44.4246 130.551 44.6155C130.559 44.7982 130.618 44.9978 130.761 45.1225C131.391 45.6734 132.02 46.2247 132.65 46.7756C132.794 46.9018 132.96 46.9855 133.157 46.9855C133.333 46.9855 133.543 46.9073 133.664 46.7756C133.79 46.6389 133.883 46.4594 133.874 46.2686C133.866 46.0856 133.806 45.8863 133.664 45.7615Z" fill="#202020"/>
<path d="M115.168 42.9019C115.083 42.6803 114.967 42.4695 114.78 42.3155C114.627 42.1899 114.517 42.1243 114.33 42.0538C114.213 42.0093 114.079 41.9932 113.956 41.9911C113.701 41.9868 113.421 42.0699 113.213 42.2189C112.936 42.418 112.728 42.6738 112.629 43.0058C112.59 43.1369 112.57 43.2821 112.58 43.4191C112.596 43.6331 112.638 43.7763 112.727 43.9695C112.84 44.2154 113.06 44.429 113.29 44.5663C113.523 44.7048 113.826 44.7932 114.098 44.7642C114.193 44.7678 114.282 44.7478 114.365 44.7045C114.451 44.6767 114.525 44.6287 114.588 44.5614C114.623 44.5257 114.647 44.4744 114.676 44.4279C114.741 44.3878 114.802 44.3424 114.861 44.2836C114.957 44.1858 115.021 44.0769 115.076 43.9601C115.078 43.9563 115.079 43.9525 115.081 43.9484C115.101 43.9051 115.123 43.865 115.14 43.8178C115.144 43.8082 115.143 43.7959 115.146 43.7859C115.167 43.7332 115.198 43.6817 115.208 43.6293C115.257 43.3884 115.259 43.1346 115.168 42.9019Z" fill="#202020"/>
<path d="M130.52 49.5332C130.439 49.3242 130.33 49.1254 130.154 48.9802C130.01 48.8616 129.906 48.7999 129.73 48.7334C129.619 48.6916 129.493 48.6764 129.377 48.6743C129.136 48.6702 128.872 48.7487 128.676 48.8892C128.415 49.0771 128.218 49.3183 128.125 49.6312C128.088 49.7551 128.069 49.8918 128.079 50.0212C128.094 50.2232 128.134 50.3581 128.217 50.5405C128.324 50.7723 128.531 50.974 128.749 51.1034C128.968 51.2343 129.254 51.3174 129.51 51.2902C129.6 51.2937 129.684 51.275 129.762 51.234C129.843 51.2076 129.913 51.1625 129.972 51.0987C130.006 51.0651 130.029 51.0168 130.056 50.9729C130.117 50.9348 130.175 50.8921 130.23 50.8364C130.321 50.7442 130.381 50.6415 130.433 50.5314C130.434 50.5279 130.436 50.5241 130.437 50.5206C130.456 50.4799 130.478 50.4418 130.494 50.3973C130.497 50.3883 130.496 50.3766 130.499 50.3672C130.518 50.3174 130.548 50.2688 130.557 50.2194C130.604 49.9919 130.605 49.7524 130.52 49.5332Z" fill="#202020"/>
<path d="M119.043 54.0539C118.915 53.9365 118.758 53.8625 118.581 53.8625H117.526C117.359 53.8625 117.183 53.9354 117.064 54.0539C116.951 54.1672 116.866 54.3534 116.873 54.5162C116.88 54.6851 116.936 54.8604 117.064 54.9784C117.192 55.0958 117.349 55.1698 117.526 55.1698H118.581C118.748 55.1698 118.925 55.097 119.043 54.9784C119.157 54.8651 119.242 54.6792 119.235 54.5162C119.227 54.347 119.171 54.1719 119.043 54.0539Z" fill="#8A3425"/>
<path d="M117.424 58.6692C117.308 58.3097 116.981 58.1443 116.62 58.2128C116.706 58.1964 116.57 58.2131 116.549 58.2128C116.531 58.2125 116.476 58.2058 116.457 58.2043C116.35 58.1844 116.244 58.1537 116.14 58.1212C116.053 58.0937 115.966 58.0638 115.88 58.0316C115.841 58.0173 115.803 58.002 115.765 57.9868C115.75 57.9804 115.717 57.9663 115.697 57.957C115.338 57.7933 114.998 57.5899 114.683 57.3522C114.676 57.3463 114.671 57.3425 114.662 57.3346C114.622 57.3021 114.583 57.2696 114.544 57.2365C114.466 57.1701 114.391 57.1013 114.317 57.0307C114.177 56.8964 114.044 56.7547 113.919 56.6063C113.887 56.5673 113.854 56.5278 113.823 56.4877C113.815 56.4784 113.815 56.4783 113.814 56.4769C113.81 56.471 113.806 56.4663 113.795 56.4494C113.737 56.3656 113.677 56.2831 113.621 56.1973C113.511 56.0258 113.411 55.8475 113.32 55.6648C113.167 55.3581 112.709 55.248 112.426 55.4304C112.112 55.6326 112.028 55.9965 112.191 56.3244C112.627 57.1988 113.282 57.9321 114.064 58.5108C114.456 58.8015 114.883 59.0266 115.334 59.2128C115.859 59.4297 116.399 59.5811 116.968 59.473C117.304 59.4095 117.527 58.9862 117.424 58.6692Z" fill="#923227"/>
<path d="M86.7679 49.2246C85.0431 45.9709 82.4194 43.1993 79.0573 41.6349C78.0948 41.187 77.2511 42.6173 78.2198 43.0681C84.203 45.8523 87.3045 52.4017 87.7264 58.7415C88.2641 66.8195 85.4667 74.8894 83.0909 82.4946C81.6998 86.9474 80.1993 91.3651 78.5989 95.7468C78.2318 96.7517 79.8354 97.185 80.1995 96.1879C83.1562 88.0906 85.9539 79.8348 87.9764 71.4485C89.7489 64.1015 90.4263 56.1265 86.7679 49.2246Z" fill="#BB2328"/>
<path d="M59.1843 55.2316C57.3023 60.5201 55.5354 65.8491 53.8929 71.2173C53.0884 73.8458 52.2878 76.4801 51.5735 79.1346C50.8832 81.6993 50.375 84.331 50.6359 86.9954C50.7389 88.0487 52.3999 88.0595 52.2957 86.9954C52.0354 84.3339 52.5741 81.7552 53.2766 79.2002C54.007 76.5439 54.8036 73.904 55.6124 71.2706C57.2213 66.0338 58.9481 60.8342 60.7847 55.6727C61.1436 54.6645 59.5406 54.2304 59.1843 55.2316Z" fill="#BB2328"/>
<path d="M96.0477 83.5266C96.0477 83.5266 89.4365 89.837 89.38 90.366C89.3232 90.8953 96.1656 96.363 99.2522 95.3302C99.8166 95.1414 103.41 91.3479 106.052 88.6494C100.554 88.0739 96.0477 83.5266 96.0477 83.5266Z" fill="white"/>
<path d="M95.2828 93.1719C95.2828 93.1719 93.0629 89.383 94.1104 86.9501C95.1578 84.5172 98.1358 85.4337 98.3085 88.6149C98.3085 88.6149 101.562 87.8052 102.086 89.3974C102.611 90.9895 99.6451 94.1004 95.2828 93.1719Z" fill="#ED404C"/>
<path d="M113.475 80.478C107.109 87.0994 100.471 93.4538 93.5781 99.5254C92.7754 100.232 93.8755 101.476 94.6782 100.768C101.571 94.6967 108.209 88.3423 114.576 81.7209C115.312 80.9551 114.217 79.7066 113.475 80.478Z" fill="#BB2328"/>
<path d="M71.8879 130.939C72.1862 125.269 75.425 108.23 77.612 97.207C73.0357 97.1686 68.4155 96.1724 64.1597 94.5949C60.3509 93.1833 56.5948 91.2668 53.4467 88.6459C50.8785 99.3785 47.5639 117.209 49.6327 131.393C52.8118 153.194 63.258 183.625 63.258 183.625L78.4147 177.765C78.4147 177.765 71.4336 139.568 71.8879 130.939Z" fill="#E28E66"/>
<path d="M56.6668 187.285C56.6668 187.285 59.7578 193.674 59.6568 198.379C59.5558 203.085 66.5437 207.246 75.1952 209.404C87.1658 212.389 92.498 210.953 96.6446 208.89C100.791 206.827 99.302 203.131 103.248 197.902C107.193 192.674 56.6668 187.285 56.6668 187.285Z" fill="#8AACD0"/>
<path d="M56.3369 183.702C56.3369 183.702 51.6619 189.541 65.9076 197.05C80.1533 204.559 98.7599 203.189 104.921 198.772C111.082 194.355 101.352 182.519 83.7083 180.245C66.0645 177.971 57.5497 180.189 56.3369 183.702Z" fill="#ABCFDD"/>
<path d="M59.6132 184.557C59.6132 184.557 56.9769 187.735 65.3061 192.755C72.7436 197.238 84.5412 198.571 90.1415 198.486C97.043 198.382 103.38 197.001 103.934 194.739C104.663 191.76 100.107 187.563 98.2312 186.915C96.3554 186.268 93.1935 185.795 92.548 184.431C91.9026 183.067 89.3034 181.527 88.0733 182.243C86.8432 182.959 84.6012 183.653 83.4773 182.549C82.3538 181.445 79.6138 180.171 78.3694 181.562C77.1247 182.952 74.7368 181.012 73.4579 180.849C72.1792 180.687 70.0703 181.451 69.044 182.104C68.0177 182.757 67.1269 180.241 65.7703 180.549C64.4138 180.857 64.5183 182.277 62.9583 182.648C61.3981 183.02 59.9159 183.854 59.6132 184.557Z" fill="#CC7A57"/>
<path d="M77.0037 173.445C77.0037 173.445 77.9133 175.537 79.9144 176.174C81.9155 176.811 84.0988 176.356 84.6444 177.63C85.1901 178.903 84.1108 180.896 82.2917 180.896C80.4724 180.896 74.2746 179.631 72.3645 179.358C70.4544 179.085 77.0037 173.445 77.0037 173.445Z" fill="#E28E66"/>
<path d="M140.013 230.52C140.013 230.52 146.038 237.956 140.141 239.751C134.244 241.545 126.296 246.032 125.655 249.365C125.014 252.698 126.809 261.159 128.218 262.826C129.629 264.492 131.423 263.979 133.475 262.056C135.526 260.133 135.141 259.364 134.372 257.698C133.602 256.031 132.321 253.339 134.5 251.672C136.679 250.006 158.088 248.596 156.806 244.109C155.701 240.241 153.453 233.231 152.854 231.369C152.758 231.071 152.704 230.904 152.704 230.904L140.013 230.52Z" fill="#873522"/>
<path d="M117.637 195.188C117.637 195.188 117.344 197.728 120.177 198.119C123.011 198.51 125.258 198.021 127.114 200.073C128.971 202.125 130.925 202.223 133.074 206.62C135.224 211.016 134.589 225.575 136.347 234.662C138.106 243.749 141.184 263.389 141.77 268.958C142.357 274.527 141.61 278.63 141.61 278.63C141.61 278.63 137.56 279.006 137.414 281.205C137.267 283.403 137.08 286.106 138.693 286.399C140.305 286.692 146.167 286.546 147.633 285.813C149.099 285.08 149.538 269.104 149.245 259.871C148.952 250.637 149.685 250.344 149.685 250.344L164.634 255.621C164.634 255.621 161.557 257.526 161.117 263.388C160.677 269.251 165.791 274.664 167.55 277.009C169.309 279.354 160.109 277.406 158.204 278.725C156.299 280.044 155.987 285.226 156.867 285.813C157.746 286.399 164.235 286.604 165.261 286.164C166.287 285.724 166.686 284.933 166.686 284.933C166.686 284.933 185.886 288.011 192.335 286.839C198.784 285.666 200.726 286.194 202.367 285.878C204.395 285.488 206.579 285.41 209.699 280.965C213.391 275.702 215.492 265.001 212.561 252.983C209.63 240.965 195.706 223.817 184.421 216.195C173.136 208.574 158.51 196.542 156.393 195.13C154.276 193.719 152.361 189.233 152.008 188.881C151.655 188.528 156.897 178.649 156.796 176.785C156.695 174.92 151.151 177.742 149.085 178.549C147.019 179.355 144.65 180.615 143.843 180.514C143.037 180.414 136.888 177.994 136.485 177.44C136.082 176.885 136.132 173.257 134.973 172.752C133.813 172.248 131.545 175.776 130.79 177.288C130.034 178.8 127.967 179.909 126.253 180.413C124.54 180.917 123.179 182.127 123.078 182.631C122.977 183.135 121.969 185.202 120.205 185.655C118.441 186.109 116.022 186.663 116.022 186.663C116.022 186.663 114.913 189.889 115.417 191.552C115.921 193.215 117.637 195.188 117.637 195.188Z" fill="#994D36"/>
<path d="M124.315 182.746C124.308 182.701 124.297 182.657 124.282 182.614C124.263 182.568 124.243 182.523 124.224 182.477C124.187 182.41 124.138 182.356 124.076 182.316C124.04 182.28 123.998 182.255 123.949 182.242C123.881 182.206 123.808 182.19 123.728 182.193C123.625 182.179 123.516 182.198 123.415 182.218C123.39 182.224 123.364 182.231 123.339 182.241C123.268 182.267 123.195 182.296 123.128 182.332C123.039 182.382 122.955 182.448 122.882 182.519C122.863 182.538 122.845 182.558 122.828 182.58C122.781 182.639 122.731 182.698 122.693 182.763C122.668 182.806 122.65 182.853 122.631 182.898C122.61 182.948 122.588 182.996 122.575 183.049C122.552 183.147 122.534 183.254 122.544 183.355C122.555 183.462 122.569 183.569 122.625 183.664C122.627 183.668 122.637 183.68 122.643 183.688C122.646 183.712 122.651 183.738 122.656 183.757C122.671 183.806 122.711 183.898 122.72 183.911C122.75 183.95 122.779 183.988 122.81 184.027C122.881 184.098 122.965 184.147 123.062 184.175C123.097 184.187 123.131 184.195 123.167 184.201C123.194 184.205 123.222 184.204 123.25 184.208C123.27 184.21 123.286 184.222 123.307 184.221C123.316 184.221 123.326 184.216 123.334 184.216C123.353 184.217 123.37 184.221 123.389 184.221C123.406 184.222 123.42 184.234 123.438 184.234C123.488 184.234 123.531 184.208 123.577 184.196C123.606 184.19 123.637 184.191 123.663 184.181C123.682 184.174 123.695 184.166 123.712 184.16C123.717 184.157 123.723 184.158 123.728 184.155C123.731 184.153 123.734 184.151 123.737 184.149C123.829 184.11 123.905 184.067 123.99 183.991C124.047 183.938 124.097 183.873 124.133 183.805C124.157 183.761 124.19 183.688 124.202 183.629C124.206 183.611 124.206 183.592 124.209 183.573C124.231 183.52 124.265 183.472 124.283 183.419C124.297 183.378 124.307 183.335 124.314 183.292C124.329 183.204 124.344 183.112 124.345 183.022C124.346 182.931 124.33 182.837 124.315 182.746Z" fill="#3A1714"/>
<path d="M134.798 173.782C134.549 173.427 134.049 173.399 133.806 173.782C132.365 176.054 130.192 181.281 130.18 181.47C130.123 182.334 130.127 183.197 130.209 184.06C130.267 184.669 130.283 185.414 130.788 185.847C130.994 186.024 131.181 186.091 131.355 186.091C131.804 186.257 132.304 186.113 132.573 185.594C132.796 185.166 132.879 184.64 133.006 184.177C133.142 183.68 134.628 177.482 134.837 176.434C135.008 175.583 135.343 174.563 134.798 173.782Z" fill="#873522"/>
<path d="M137.439 177.635C137.261 176.919 136.153 177.222 136.332 177.941C136.984 180.569 138.195 183.081 138.437 185.803C138.502 186.533 139.65 186.54 139.585 185.803C139.332 182.965 138.118 180.374 137.439 177.635Z" fill="#873522"/>
<path d="M152.979 188.5C150.853 185.704 149.686 184.59 147.129 182.182C146.591 181.676 145.777 182.486 146.316 182.994C148.801 185.332 149.923 186.363 151.988 189.08C152.177 189.328 152.481 189.452 152.774 189.286C153.018 189.147 153.167 188.747 152.979 188.5Z" fill="#873522"/>
<path d="M117.778 195.185C117.778 195.185 118.54 195.566 119.659 195.297C120.779 195.028 121.698 194.423 122.796 194.491C123.893 194.558 123.848 195.499 123.557 195.79C123.266 196.081 122.549 195.902 122.124 195.723C121.698 195.544 120.354 196.081 119.257 196.193C118.159 196.305 117.8 195.633 117.778 195.185Z" fill="#873522"/>
<path d="M115.368 190.718C115.368 190.718 115.771 188.389 116.085 187.627C116.398 186.866 116.645 186.395 115.793 186.597C114.942 186.798 114.741 186.709 114.382 187.425C114.024 188.142 115.121 191.614 115.368 190.718Z" fill="#3A1714"/>
<path d="M189.276 273.748C189.276 273.748 187.287 269.486 188.234 267.781C189.181 266.077 189.749 264.561 189.749 264.561C189.749 264.561 185.997 262.686 182.333 264.713C178.669 266.74 177.438 272.612 177.816 273.843C178.195 275.074 179.616 278.673 179.711 276.779C179.805 274.884 179.427 272.517 180.658 273.464C181.889 274.411 184.257 277.252 184.635 276.589C185.014 275.926 184.825 272.801 185.393 272.896C185.961 272.99 187.571 274.979 188.518 274.884C189.466 274.79 189.276 273.748 189.276 273.748Z" fill="white"/>
<path d="M212.88 269.921C212.419 274.276 210.765 278.506 208.105 281.99C206.728 283.794 205.082 285.018 202.821 285.433C200.632 285.834 198.297 285.821 196.079 285.808C191.52 285.779 186.995 284.911 183.395 281.96C177.094 276.794 178.717 271.206 179.08 270.066C179.852 267.639 181.075 265.884 183.185 264.902C185.104 264.009 187.316 264.17 189.152 265.13C187.645 266.278 187.265 268.358 187.67 270.242C188.119 272.335 189.277 274.276 190.759 275.802C193.675 278.805 197.961 280.33 202.105 279.649C202.832 279.529 202.524 278.423 201.8 278.542C198.341 279.11 194.72 277.879 192.143 275.544C190.87 274.389 189.82 272.958 189.202 271.346C188.507 269.533 188.132 266.567 190.416 265.685C190.89 265.502 190.973 264.933 190.553 264.636C186.821 262.003 181.523 263.095 179.181 267.031C177.919 269.153 177.521 271.031 177.48 273.43C177.459 274.651 177.886 276.556 178.387 277.685C178.878 278.794 179.636 279.787 180.429 280.697C183.658 284.406 188.178 286.35 193.014 286.812C195.635 287.062 198.301 286.978 200.924 286.799C203.303 286.637 205.561 286.135 207.379 284.498C209.345 282.728 210.813 280.246 211.891 277.855C213.028 275.334 213.737 272.67 214.027 269.921C214.106 269.187 212.957 269.192 212.88 269.921Z" fill="#873522"/>
<path d="M148.177 238.381C148.009 238.132 147.664 237.999 147.392 238.175C147.144 238.334 147.005 238.694 147.185 238.96C147.244 239.047 147.299 239.137 147.346 239.231C147.358 239.254 147.37 239.277 147.381 239.301C147.382 239.305 147.382 239.303 147.383 239.306C147.399 239.342 147.414 239.385 147.426 239.419C147.459 239.518 147.487 239.62 147.508 239.723C147.515 239.756 147.548 239.846 147.535 239.878C147.524 239.79 147.522 239.779 147.529 239.842C147.531 239.862 147.533 239.882 147.534 239.901C147.542 240 147.544 240.098 147.54 240.196C147.538 240.249 147.533 240.301 147.529 240.354C147.528 240.362 147.529 240.358 147.528 240.364C147.526 240.374 147.525 240.385 147.523 240.396C147.505 240.499 147.48 240.601 147.449 240.702C147.434 240.751 147.415 240.799 147.398 240.848C147.391 240.863 147.385 240.878 147.377 240.893C147.249 241.164 147.293 241.525 147.583 241.679C147.839 241.814 148.231 241.763 148.369 241.473C148.834 240.49 148.795 239.294 148.177 238.381Z" fill="#873522"/>
<path d="M146.165 278.821C144.895 278.723 143.625 278.626 142.354 278.528C142.054 278.505 141.767 278.809 141.78 279.102C141.796 279.433 142.033 279.652 142.354 279.676C143.625 279.774 144.895 279.872 146.165 279.969C146.465 279.992 146.752 279.688 146.739 279.395C146.724 279.064 146.487 278.845 146.165 278.821Z" fill="#873522"/>
<path d="M150.806 240.617C150.806 240.617 155.115 241.448 156.249 241.978C157.383 242.507 156.022 242.96 156.401 243.414C156.779 243.868 160.861 245.455 162.071 246.287C163.281 247.119 162.071 247.497 162.373 247.95C162.676 248.404 166.532 249.387 167.212 250.143C167.892 250.899 167.136 251.504 167.136 251.504L168.573 252.714L163.81 255.436L149.685 250.345L150.806 240.617Z" fill="white"/>
<path d="M150.518 235.489C149.954 233.571 149.352 231.664 148.717 229.768C148.483 229.071 147.374 229.37 147.61 230.073C148.23 231.926 148.82 233.789 149.373 235.663C149.938 237.577 150.447 239.457 150.106 241.464C149.79 243.319 149.309 245.107 149.151 246.991C148.983 249.013 149.008 251.043 149.034 253.07C149.043 253.808 150.191 253.81 150.182 253.07C150.156 251.043 150.131 249.012 150.3 246.991C150.468 244.983 151.065 243.075 151.315 241.086C151.555 239.167 151.055 237.314 150.518 235.489Z" fill="#873522"/>
<path d="M174.283 251.851C168.542 251.078 163.071 254.196 160.822 259.529C160.536 260.209 161.647 260.505 161.93 259.834C163.911 255.136 168.922 252.278 173.977 252.958C174.7 253.056 175.013 251.95 174.283 251.851Z" fill="#873522"/>
</g>
<defs>
<filter id="filter0_d_238_4" x="0.364441" y="0.522949" width="221.636" height="310.766" filterUnits="userSpaceOnUse" color-interpolation-filters="sRGB">
<feFlood flood-opacity="0" result="BackgroundImageFix"/>
<feColorMatrix in="SourceAlpha" type="matrix" values="0 0 0 0 0 0 0 0 0 0 0 0 0 0 0 0 0 0 127 0" result="hardAlpha"/>
<feOffset dy="4"/>
<feGaussianBlur stdDeviation="2"/>
<feComposite in2="hardAlpha" operator="out"/>
<feColorMatrix type="matrix" values="0 0 0 0 0 0 0 0 0 0 0 0 0 0 0 0 0 0 0.25 0"/>
<feBlend mode="normal" in2="BackgroundImageFix" result="effect1_dropShadow_238_4"/>
<feBlend mode="normal" in="SourceGraphic" in2="effect1_dropShadow_238_4" result="shape"/>
</filter>
</defs>
</svg>
