<svg width="280" height="284" viewBox="0 0 280 284" fill="none" xmlns="http://www.w3.org/2000/svg">
<path d="M235.552 73.7738C235.999 80.3523 238.484 86.4759 239.386 92.826L238.93 93.0534C231.446 92.8153 202.092 98.2722 194.383 98.7154C184.857 98.9302 176.694 96.1983 167.63 92.7852C159.693 89.3759 149.501 83.6945 140.878 84.5886C132.716 85.2582 116.763 80.9791 116.845 79.5719C116.928 78.1647 118.667 78.6632 118.441 78.2103C118.441 78.2103 116.414 78.7186 116.4 77.5291C116.386 76.3376 119.345 76.6272 120.934 76.4027C117.536 76.3959 116.884 75.7593 116.406 74.1286C115.928 72.4988 126.382 71.4181 131.15 69.6094C130.474 65.9815 130.48 61.4469 134.337 60.0892C135.494 71.3257 144.877 65.4091 145.655 74.2782C145.655 74.2782 186.917 81.4699 187.145 81.9277C197.127 79.2162 235.552 73.7738 235.552 73.7738Z" fill="#DD9554"/>
<path d="M203.269 97.6503C215.124 95.9466 233.274 92.8736 238.931 93.0544L239.387 92.827C238.484 86.4759 236 80.3523 235.553 73.7748C235.553 73.7748 222.768 75.5853 210.032 77.6398C208.23 83.5924 205.714 91.4674 203.269 97.6503Z" fill="#CE6C4E"/>
<path opacity="0.1" d="M81.3243 256.809C120.002 256.809 151.356 247.31 151.356 235.592C151.356 223.874 120.002 214.374 81.3243 214.374C42.6469 214.374 11.2927 223.874 11.2927 235.592C11.2927 247.31 42.6469 256.809 81.3243 256.809Z" fill="black"/>
<path d="M113.86 236.321C113.115 241.34 107.405 242.812 101.41 243.475C97.0566 243.963 92.5793 243.991 89.7512 244.681C89.1846 244.785 88.2837 245.07 87.1525 245.462C81.1552 247.488 69.0382 252.197 70.1198 245.968C70.2228 245.529 70.6611 245.018 71.1753 244.51C72.5903 243.092 74.6467 241.521 72.0509 240.821L82.3428 237.61C86.0475 235.037 89.726 232.487 93.6338 230.382C94.1508 230.091 94.6629 229.812 95.2033 229.554C96.4657 228.963 97.9828 228.372 99.5756 227.931C99.9129 227.834 100.273 227.749 100.607 227.678C107.426 226.052 115.356 226.876 113.86 236.321Z" fill="#26190C"/>
<path d="M55.3856 237.571C57.1213 237.292 57.5237 234.771 58.1942 233.117C37.3723 224.271 20.1055 207.341 10.8515 186.697C10.11 185.041 9.14978 183.139 7.3606 182.821C5.56948 182.498 3.88722 184.107 3.45183 185.875C3.02033 187.648 3.49556 189.502 3.97079 191.259C3.15541 190.287 2.34197 189.319 1.53339 188.35C1.07079 189.891 0.791867 191.446 0.678161 193.004C-0.00310677 201.889 11.5979 244.632 55.3856 237.571Z" fill="#3A2618"/>
<path d="M136.11 64.9591C133.953 56.6352 130.798 48.5688 126.736 40.9904C124.687 37.0476 117.059 53.7235 116.481 61.5596C116.241 64.8124 116.566 68.2177 118.192 71.0429C119.822 73.87 122.966 75.978 126.212 75.6679L136.11 64.9591Z" fill="#3A2618"/>
<path d="M128.99 167.495C132.411 158.488 135.859 148.608 135.859 138.76C135.859 128.158 127.947 91.2535 128.053 85.8267C132.967 84.1619 137.88 82.4981 142.794 80.8353C140.581 76.8274 142.624 72.215 141.407 69.1109C140.24 66.136 134.131 61.6976 124.579 59.7471C115.029 57.7976 105.286 62.5305 102.04 65.033C97.4949 68.5346 92.2693 95.5122 91.243 100.427C90.7862 102.608 90.4645 104.762 90.3304 106.905C88.5792 115.291 86.2127 123.558 81.8277 131.041C67.2383 155.916 49.226 178.633 42.7953 207.373C41.0722 215.357 39.7874 224.872 43.0023 232.231L47.4543 238.404C48.6876 239.49 50.1298 240.444 51.8014 241.235C57.408 243.938 64.3101 245.02 71.1762 244.511C79.8471 243.863 88.4412 240.703 94.2013 235.089C95.6707 233.674 97.1616 232.049 98.6281 230.252C99.2987 229.427 99.9683 228.578 100.609 227.68C106.452 219.702 110.926 209.39 108.407 200.502C107.533 197.29 105.834 195.744 103.723 195.231C103.389 195.155 103.028 195.106 102.667 195.077C103.518 193.608 104.444 192.045 105.399 190.446C107.277 187.261 109.229 183.989 110.799 181.417C110.876 183.703 110.851 186.022 110.799 188.309C110.748 189.932 110.698 191.581 110.672 193.201C110.542 198.113 110.492 203.034 111.212 207.864C111.47 209.511 111.771 211.165 112.264 212.807C114.045 218.74 116.442 227.919 123.495 229.128C126.106 229.576 130.67 229.258 132.113 226.583C133.322 224.32 132.036 220.509 129.951 219.306C128.973 218.715 127.92 219.508 126.89 218.631C125.757 217.709 125.32 214.595 125.037 213.229C123.44 206.107 124.102 193.975 124.797 186.819C125.438 180.282 126.646 173.643 128.99 167.495Z" fill="#673519"/>
<path d="M106.686 197.05C105.856 196.089 104.851 195.505 103.722 195.231C103.388 195.155 103.027 195.106 102.666 195.077C102.79 194.866 102.923 194.641 103.048 194.426C89.3041 195.348 80.9627 208.742 77.1832 216.737C84.9026 204.246 106.338 197.164 106.686 197.05Z" fill="#26190C"/>
<path d="M142.723 95.8873C139.906 96.5686 137.051 97.1021 134.179 97.5054C128.34 95.0301 121.592 92.1165 115.774 89.6538C117.104 93.4149 119.545 96.6317 122.815 98.8544C124.948 100.778 127.237 102.574 129.892 103.646C132.769 104.81 136.158 105.034 138.918 103.612C141.677 102.189 143.537 98.8835 142.723 95.8873Z" fill="#26190C"/>
<path d="M134.77 78.324C135.403 78.5952 156.682 83.6235 157.76 84.747C158.757 85.7859 159.012 91.6423 158.775 93.757C158.572 95.5627 157.099 97.0701 155.327 97.4782C153.557 97.8884 151.503 97.1177 150.659 95.5083C150.682 98.451 147.824 100.771 144.913 101.204C142.003 101.639 139.083 100.677 136.299 99.7261C129.752 97.4947 123.203 95.2624 116.656 93.031C115.392 91.9581 114.444 90.0134 115.452 88.6956C116.182 87.7442 117.717 87.5527 118.834 87.6917C120.259 87.8686 121.045 87.5556 122.188 86.5847C123.269 85.6683 127.392 82.157 127.972 81.0287C128.719 79.5816 128.559 72.9924 128.516 71.3656C128.503 70.8991 128.493 70.4131 128.685 69.9865C128.878 69.5589 129.334 69.2139 129.792 69.3072C130.28 69.4083 130.548 69.9243 130.746 70.383C131.611 72.3782 133.802 77.7458 134.451 78.1578C134.555 78.2229 134.661 78.2774 134.77 78.324Z" fill="#AF4C21"/>
<path d="M144.404 87.4886C144.64 86.8413 145.443 86.644 146.125 86.5517C148.538 86.2252 150.973 86.0512 153.408 86.0279C154.016 86.022 154.696 86.057 155.108 86.5021C155.462 86.8851 155.502 87.4779 155.344 87.9755C155.187 88.4721 154.859 88.8948 154.541 89.3059C153.858 90.1854 153.134 91.0961 152.118 91.549C151.004 92.0456 149.69 91.9047 148.563 91.444C147.435 90.9824 146.454 90.2292 145.49 89.4857C145.168 89.236 144.841 88.9823 144.611 88.646C144.383 88.3088 144.265 87.8705 144.404 87.4886Z" fill="#26190C"/>
<path d="M118.58 80.4883C118.266 79.74 118.074 78.9334 118.179 78.1432C118.282 77.3531 118.711 76.5795 119.434 76.1471C120.157 75.7165 121.184 75.6893 121.872 76.184C122.404 76.5679 122.668 77.186 122.831 77.7875C123.051 78.601 123.13 79.4426 123.066 80.2736C123 81.1453 122.678 82.1191 121.815 82.4758C121.157 82.7459 120.348 82.5584 119.778 82.1405C119.209 81.7226 118.845 81.1113 118.58 80.4883Z" fill="#26190C"/>
<path d="M135.631 76.2773C135.367 75.6544 135.208 74.9818 135.295 74.3219C135.382 73.663 135.739 73.0187 136.343 72.6581C136.944 72.2986 137.8 72.2772 138.374 72.6892C138.818 73.0099 139.039 73.5241 139.174 74.0265C139.357 74.7039 139.424 75.4056 139.37 76.0995C139.315 76.8254 139.046 77.6379 138.327 77.9343C137.779 78.1598 137.104 78.0033 136.629 77.6554C136.153 77.3065 135.85 76.7973 135.631 76.2773Z" fill="#26190C"/>
<path d="M111.067 63.86C107.117 56.2212 102.251 49.0567 96.6076 42.5677C93.7358 39.1769 89.9961 57.1299 91.1711 64.8998C91.6589 68.1235 92.7299 71.3733 94.9438 73.768C97.1567 76.1626 100.692 77.5203 103.79 76.4979L111.067 63.86Z" fill="#673519"/>
<path d="M96.5833 47.3142C95.9944 47.251 95.6153 47.9099 95.4151 48.4668C94.0594 52.2172 93.3558 56.2027 93.3412 60.1912C93.3325 62.4984 93.5628 64.8396 94.4025 66.9884C95.2402 69.1381 96.7398 71.0915 98.7982 72.1353C99.9819 68.4277 102.217 65.0612 105.173 62.5285C102.618 57.748 100.062 52.9675 97.5046 48.186C97.2967 47.7972 97.0226 47.3608 96.5833 47.3142Z" fill="#AF4C21"/>
<path d="M123.088 151.96C128.408 146.533 125.376 137.329 120.62 135.862C115.86 134.395 110.16 127.99 106.485 110.008C104.782 101.68 98.6193 97.0078 92.4947 94.3887C91.9068 97.1556 91.4714 99.3354 91.243 100.427C90.7862 102.608 90.4645 104.762 90.3304 106.905C88.5791 115.291 86.2127 123.558 81.8277 131.041C67.2383 155.916 49.226 178.633 42.7952 207.373C41.6144 212.845 40.6407 219.034 41.1791 224.758C46.8673 230.047 53.1834 233.997 56.7005 232.461C63.76 229.374 63.4743 222.751 58.1952 213.26C52.9161 203.771 62.0904 196.121 78.3456 188.858C94.5988 181.596 86.6452 167.071 88.7191 155.313C90.795 143.555 95.9827 143.21 104.282 145.975C112.58 148.741 117.769 157.388 123.088 151.96Z" fill="#AF4C21"/>
<path d="M126.889 218.63C125.756 217.708 125.319 214.594 125.036 213.228C124.197 209.482 123.873 200.901 124.124 197.093C122.082 195.349 120.152 192.742 120.621 188.991C121.762 179.809 116.257 182.785 115.03 184.97C113.803 187.155 121.886 196.336 118.151 202.458C114.414 208.581 119.759 221.739 126.889 218.63Z" fill="#AF4C21"/>
<path d="M18.1695 213.066C14.8409 216.2 15.39 221.104 14.2355 224.709C18.3717 229.213 23.608 233.125 30.1505 235.592C28.2321 231.724 26.7578 226.819 29.4226 223.787C34.3528 218.174 24.0483 207.532 18.1695 213.066Z" fill="#AF4C21"/>
<path opacity="0.1" d="M279.955 269.385C279.955 277.053 246.003 283.268 204.124 283.268C162.243 283.268 128.294 277.052 128.294 269.385C128.294 261.717 162.244 255.501 204.124 255.501C246.003 255.501 279.955 261.717 279.955 269.385Z" fill="black"/>
<path d="M234.201 266.9C234.201 266.9 230.239 270.682 237.131 269.512C246.359 267.951 253.887 260.85 256.268 251.876C258.648 242.902 256.315 233.066 250.199 229.153C244.082 225.241 248.188 247.176 248.188 247.176L237.497 264.478L234.201 266.9Z" fill="white"/>
<path d="M228.611 265.3C221.998 260.741 231.4 254.86 233.218 250.545C236.242 243.341 234.006 242.412 234.972 234.819C235.613 229.806 238.564 223.344 244.79 224.678C253.405 226.632 253.708 239.813 252.74 246.398C251.815 252.692 248.813 256.514 244.489 260.968C240.481 265.102 234.163 269.122 228.611 265.3Z" fill="#CB4E29"/>
<path d="M240.719 265.339C240.719 265.339 229.268 263.501 228.743 256.495C228.743 256.495 225.569 256.906 225.326 262.395C225.083 267.883 231.628 271.407 237.13 269.512C242.635 267.617 242.353 265.754 242.353 265.754L240.719 265.339Z" fill="white"/>
<path d="M233.951 244.9L233.755 245.446C233.535 246.062 233.857 246.745 234.472 246.965L243.593 250.239C244.208 250.459 244.892 250.137 245.112 249.522L245.308 248.975C245.529 248.36 245.207 247.678 244.591 247.456L235.47 244.184C234.855 243.964 234.172 244.287 233.951 244.9Z" fill="white"/>
<path d="M231.72 251.117L231.525 251.662C231.303 252.278 231.626 252.961 232.241 253.18L241.363 256.454C241.978 256.675 242.661 256.352 242.882 255.738L243.077 255.193C243.298 254.577 242.975 253.895 242.36 253.673L233.239 250.401C232.625 250.18 231.942 250.502 231.72 251.117Z" fill="white"/>
<path d="M252.651 150.783C244.288 152.438 215.949 159.832 167.077 176.422C162.214 178.072 156.768 181.399 153.909 184.043C153.47 184.391 153.061 184.81 152.747 185.161C152.081 185.92 151.473 186.696 150.954 187.508C148.428 191.629 147.222 196.413 149.598 201.252C154.807 212.603 187.084 224.918 237.328 241.399C244.968 237.344 249.022 230.437 250.194 227.489C230.898 212.821 204.64 205.425 203.881 204.984C205.451 204.443 206.367 204.109 206.367 204.109C235.503 204.886 287.247 193.925 253.688 151.153C253.689 151.151 253.299 150.982 252.651 150.783Z" fill="#61726B"/>
<path opacity="0.2" d="M263.358 168.232C263.728 188.134 220.143 200.834 207.368 204.127C232.243 204.555 272.178 196.546 263.358 168.232Z" fill="#2E3532"/>
<path d="M268.852 124.342L268.85 124.341C268.85 124.341 272.374 108.966 269.611 96.5336C267.032 84.9277 257.088 61.0202 243.44 56.8092C242.46 56.5711 241.465 56.3738 240.458 56.2125C239.917 56.1648 239.485 56.0997 239.136 56.022C232.874 55.228 226.213 55.8286 219.984 57.4836C214.632 58.9084 211.582 64.0495 212.631 69.7659C216.216 89.3186 198.533 96.761 202.936 106.222C206.012 114.063 212.646 112.455 213.031 121.085C213.265 126.113 213.027 131.179 212.224 136.151C211.509 140.682 210.514 145.815 210.296 150.368C209.944 157.61 222.605 162.127 227.719 164.603C235.842 168.522 250.133 173.613 259.414 168.917C261.023 168.1 262.604 165.356 264.097 161.436C262.773 154.308 263.803 137.42 268.852 124.342Z" fill="#D5E2DD"/>
<path d="M224.015 48.2997C220.35 44.1528 220.723 38.0505 220.437 33.1786C220.307 31.2233 218.767 30.7626 217.626 33.1553C216.135 36.2953 216.177 39.8727 214.883 43.144C213.61 46.39 212.823 49.8595 210.58 52.6234C208.929 54.6449 207.902 55.9044 207.406 57.2329C211.284 61.4886 220.721 72.6474 219.659 79.4086C226.887 76.839 234.021 68.4967 234.747 61.7326C235.384 55.8062 227.417 52.1414 224.015 48.2997Z" fill="#DD9554"/>
<path d="M213.328 64.4188C217.072 58.9648 220.46 50.6875 219.492 39.103L207.709 57.5653C209.174 59.1893 211.282 61.6383 213.328 64.4188Z" fill="#CE6C4E"/>
<path d="M205.67 7.76572C198.065 4.01923 188.676 7.15249 183.054 13.2275C177.745 18.9644 174.811 24.1696 177.98 31.8725H177.979L177.987 31.889C178.307 32.6665 177.439 34.2555 177.887 35.0864L183.074 43.7786C183.084 43.8243 183.094 43.871 183.103 43.9166C182.968 44.7097 182.091 55.1862 182.091 55.1862L187.003 53.8538C192.462 64.6103 194.4 64.6559 196.283 64.5587C198.135 64.4635 197.63 64.4198 203.269 62.065C210.021 59.2466 216.342 55.7509 218.863 48.6593C224.476 32.7608 220.679 15.1421 205.67 7.76572Z" fill="#DD9554"/>
<path d="M186.605 39.0506C186.985 40.2323 186.701 41.382 185.969 41.6172C185.237 41.8524 184.337 41.0846 183.957 39.9029C183.577 38.7201 183.86 37.5714 184.592 37.3362C185.324 37.1001 186.225 37.8678 186.605 39.0506Z" fill="#26190C"/>
<path d="M211.179 30.0017C210.535 30.0172 209.965 30.5585 209.557 31.4177C209.667 31.3817 209.779 31.3418 209.894 31.3399C211.211 31.3078 212.332 33.4673 212.397 36.1622C212.43 37.5393 212.178 38.7853 211.752 39.6823C212.898 39.3149 213.74 37.2799 213.681 34.824C213.617 32.1281 212.496 29.9696 211.179 30.0017Z" fill="#CE6C4E"/>
<path d="M188.842 57.3632C188.977 57.6294 189.106 57.885 189.232 58.129C192.26 56.5021 193.662 53.3096 193.731 53.1453L192.949 52.8129C192.933 52.8499 191.605 55.8539 188.842 57.3632Z" fill="#CE6C4E"/>
<path d="M198.943 0.717838C162.368 7.78417 173.127 38.726 175.922 39.1021L190.744 32.3973L188.724 21.2783L193.601 31.5314C193.601 31.5314 198.216 28.5691 203.27 30.3554C206.599 31.5313 210.093 39 209.247 36.3585C209.247 36.3585 206.598 27.0239 211.194 26.4165C216.613 25.7002 218.905 45.8341 218.905 45.8341C218.905 45.8341 219.879 51.3212 221.891 62.649C221.891 62.649 237.822 54.433 239.387 47.1548C241.114 39.1215 234.814 -6.21243 198.943 0.717838Z" fill="#26190C"/>
<path d="M234.641 92.6637C236.526 99.2247 240.375 104.883 242.673 111.114L242.261 111.444C234.633 112.833 206.108 124.751 198.4 126.88C188.805 129.171 179.948 128.185 170.03 126.705C161.253 124.982 149.698 121.452 141.164 124.235C133.047 126.69 115.966 125.835 115.744 124.392C115.522 122.949 117.39 123.077 117.061 122.666C117.061 122.666 115.12 123.622 114.848 122.421C114.575 121.219 117.634 120.866 119.192 120.292C115.751 121.025 114.953 120.523 114.114 118.978C113.274 117.431 123.62 114.06 128.054 111.191C126.579 107.666 125.598 103.074 129.206 100.86C132.826 111.982 141.034 103.95 143.754 112.757C143.754 112.757 187.088 111.049 187.419 111.462C196.931 106.543 234.641 92.6637 234.641 92.6637Z" fill="#DD9554"/>
<path d="M242.261 111.444L242.673 111.114C242.035 109.383 241.275 107.697 240.473 106.024C240.473 106.024 197.62 130.222 164.012 125.418H164.011C166.107 125.877 168.135 126.333 170.029 126.705C179.947 128.184 188.804 129.171 198.399 126.88C206.108 124.752 234.633 112.833 242.261 111.444Z" fill="#CE6C4E"/>
<path d="M242.261 111.444C242.261 111.444 257.914 106.178 258.671 93.9329C258.671 93.9329 261.818 106.555 243.998 114.617L242.261 111.444Z" fill="#BFD1CA"/>
<path d="M189.004 270.905C189.004 270.905 183.337 273.363 191.088 274.812C201.465 276.751 212.198 272.167 218.211 263.595C224.226 255.024 225.587 243.705 220.636 237.181C215.686 230.657 211.488 255.474 211.488 255.474L193.434 269.624L189.004 270.905Z" fill="white"/>
<path d="M183.712 267.035C178.486 259.634 190.728 257.069 194.333 253.21C200.34 246.762 198.334 244.908 202.315 237.249C204.945 232.191 210.584 226.5 216.654 230.338C225.011 235.761 220.2 249.83 216.611 256.423C213.18 262.725 208.515 265.602 202.203 268.633C196.352 271.446 188.098 273.241 183.712 267.035Z" fill="#CB4E29"/>
<path d="M196.51 271.79C196.51 271.79 185.105 265.384 187.278 257.766C187.278 257.766 183.76 256.963 181.365 262.678C178.971 268.395 184.524 274.674 191.088 274.811C197.652 274.95 198.08 272.865 198.08 272.865L196.51 271.79Z" fill="white"/>
<path d="M197.358 247.459L196.836 248.085C196.39 248.616 196.461 249.414 196.992 249.857L205.497 256.976C206.027 257.421 206.825 257.351 207.269 256.82L207.793 256.195C208.237 255.664 208.166 254.867 207.636 254.421L199.131 247.303C198.6 246.858 197.803 246.928 197.358 247.459Z" fill="white"/>
<path d="M192.578 253.171L192.053 253.796C191.61 254.327 191.68 255.124 192.212 255.568L200.715 262.688C201.246 263.132 202.044 263.063 202.488 262.532L203.011 261.908C203.456 261.376 203.385 260.579 202.854 260.134L194.35 253.015C193.819 252.569 193.021 252.639 192.578 253.171Z" fill="white"/>
<path d="M195.6 139.194C195.162 139.079 194.722 138.993 194.317 138.899C193.018 138.529 186.501 137.283 185.078 137.084C182.102 136.589 179.913 136.277 178.836 136.112L178.759 136.125C178.324 136.034 178.082 135.994 178.082 135.994C171.188 135.043 165.939 135.145 161.977 136.096C161.424 136.184 160.864 136.351 160.418 136.502C159.466 136.839 158.557 137.22 157.707 137.673C149.275 142.392 148.001 150.475 156.748 171.664C159.41 177.416 170.719 201.704 200.091 242.491C208.739 242.688 218.842 239.114 221.305 237.116C211.641 214.889 196.041 179.96 196.041 179.96C219.913 196.68 271.829 218.841 264.722 161.894C264.72 161.894 206.477 142.192 195.6 139.194Z" fill="#6E847B"/>
</svg>
