<svg width="91" height="99" viewBox="0 0 91 99" fill="none" xmlns="http://www.w3.org/2000/svg">
<path d="M34.0317 32.4852C33.7908 32.5457 28.3088 35.2679 28.3088 35.2679L44.092 53.0531C44.092 53.0531 53.2486 34.179 53.0679 34.2395C52.9474 34.3 44.3932 32.0012 44.3932 32.0012L34.0317 32.4852Z" fill="white"/>
<path opacity="0.3" d="M53.1281 34.2395C53.0076 34.3 49.5137 33.3321 46.9835 32.6667C48.1884 35.7519 47.2245 39.9864 46.5016 42.9506C46.0197 45.0074 43.6703 46.7012 41.6823 45.1284C39.6341 43.4346 38.1281 41.3173 36.6823 39.079C35.357 37.0222 34.2125 34.9049 33.9715 32.4852C33.4293 32.7272 28.3088 35.2679 28.3088 35.2679L44.092 53.0531C44.1522 53.0531 53.2486 34.179 53.1281 34.2395Z" fill="#5DAFAD"/>
<path d="M28.9716 34.179C28.9716 34.179 18.6704 39.321 14.2126 44.2815C9.6945 49.242 0.778836 68.116 0.477632 71.8062C-0.365742 82.6951 20.8391 75.0728 20.8391 75.0728V98.0605L69.9957 97.758L70.2969 82.0901C70.2969 82.0901 74.2126 81.2432 79.1523 80.3358C84.0921 79.4889 89.574 75.9802 88.1282 71.2012C86.4415 65.5148 79.9355 48.5765 72.4656 42.7691C64.9957 36.9617 51.6825 33.7556 51.6825 33.7556C51.6825 33.7556 44.2126 51.7827 43.5499 51.1778C42.8873 50.5123 28.9716 34.179 28.9716 34.179Z" fill="#2EC2BB"/>
<path d="M20.2366 56.0173C17.1041 60.6148 13.7306 65.0914 9.8149 69.084C8.85104 70.0519 7.52574 70.2938 6.20044 70.0519C4.45345 70.8383 2.52574 70.2938 1.20044 69.084C0.778752 70.2333 0.537788 71.2012 0.477547 71.7457C-0.185104 80.0938 12.1643 77.5531 17.9474 75.9198C16.8028 68.963 17.9474 62.3691 20.2366 56.0173Z" fill="#2C8F8A"/>
<path d="M36.803 43.3136C30.8994 53.2346 21.4415 73.863 20.8391 80.3358V98L39.2728 97.879C39.0319 95.3383 38.7307 92.737 38.55 90.1358C38.3692 88.2 38.2488 86.2642 38.1885 84.3284C37.5861 72.3506 38.1283 60.3123 41.5018 48.758C40.2367 47.3062 38.55 45.3704 36.803 43.3136Z" fill="#2C8F8A"/>
<path d="M88.1281 71.2012C87.4655 71.1407 86.863 71.0198 86.2606 70.8988C86.2004 72.2296 85.6582 73.5605 84.5739 74.2864C82.104 75.8593 79.6341 77.0086 76.863 77.916C74.3932 78.763 71.9835 77.9765 70.7185 75.5568C69.6944 73.4395 70.7787 70.1728 73.0679 69.3864C74.092 69.0235 75.1763 68.6605 76.2004 68.2975C76.6823 68.1161 77.1642 67.8741 77.6462 67.6321C77.7064 67.5716 78.1281 67.3296 78.4293 67.2086C71.6823 61.7642 67.5257 51.9642 64.8148 44.2815C63.9715 44.342 63.1883 44.342 62.345 44.2815C63.2486 45.1284 63.7908 46.3383 63.7305 47.8506C63.5498 53.2951 64.3932 58.679 64.9956 64.063C65.598 69.3259 65.7787 74.5889 65.8389 79.9123C65.8992 85.8407 65.7185 91.7691 65.5377 97.6975H69.9353L70.2365 82.0296C70.2365 82.0296 74.1522 81.1827 79.092 80.2753C84.092 79.4889 89.5739 76.0407 88.1281 71.2012Z" fill="#2C8F8A"/>
<path d="M10.4173 69.8099C10.4173 68.4185 10.3571 67.2086 8.85105 66.6642C7.52574 66.1802 5.41731 66.3617 4.09201 66.6642C0.658275 67.4506 -0.84775 71.3222 0.477552 74.6494C1.26068 76.5247 2.70647 77.5531 4.8149 77.0691C7.76671 76.4037 9.8149 73.8025 10.4173 69.8099Z" fill="#2C8F8A"/>
<path d="M35.2366 92.858C35.0559 87.2321 34.7547 81.6667 35.0559 76.0407C35.6583 65.6358 36.9836 55.2914 38.1282 44.9469C37.6463 44.4025 37.1644 43.7975 36.6824 43.2531C32.2848 61.0988 27.6463 78.9444 25.8993 97.2741C25.8993 97.516 25.839 97.758 25.7788 98L35.3571 97.9395C35.3571 96.2457 35.2969 94.4914 35.2366 92.858Z" fill="#2EC2BB"/>
<path d="M51.6222 33.6346L52.2246 33.816C52.2246 33.816 49.2728 40.2284 48.3692 42.3457C47.4655 44.463 43.9113 51.4198 43.9113 51.4198C43.9113 51.4198 38.1884 44.7654 36.2607 42.8296C34.333 40.9543 29.092 34.1185 29.092 34.1185L29.5137 33.937C29.5137 33.937 33.2487 38.4136 36.1402 41.7407C39.0318 45.0679 43.7908 50.4519 43.7908 50.4519C43.7908 50.4519 46.9836 44.0395 47.586 42.4062C48.2487 40.8333 51.6222 33.6346 51.6222 33.6346Z" fill="#0B6D64"/>
<path d="M88.1282 71.2012C87.8872 70.4148 87.586 69.3864 87.1643 68.237C86.6222 69.9914 84.0318 77.2506 79.3933 76.7062C77.0439 76.4037 74.5137 73.9235 75.1162 71.3827C75.1764 71.0802 75.1764 70.8383 75.2366 70.5358C75.2366 70.5963 75.2366 70.5963 75.2969 70.2333C75.2969 70.1123 75.2969 70.0519 75.2969 69.9309C75.2366 69.5074 75.1162 69.0235 75.0559 68.6C74.9957 68.4185 74.9957 68.2975 74.9354 68.116V68.0556C74.2728 66.2407 73.4897 64.4864 72.586 62.7926C72.1041 61.8852 71.6222 61.0383 71.08 60.1309C70.9595 59.9494 70.4776 59.2235 70.6583 59.4654C70.5378 59.2839 70.4174 59.1025 70.2969 58.921C68.9716 56.8642 68.3692 55.7148 66.9836 53.779C65.6583 51.9642 64.2728 50.3309 62.7065 48.758C62.7065 48.758 62.1041 48.1531 62.0439 48.0926C61.6824 47.7901 61.3812 47.4877 61.0198 47.1852C60.2366 46.5198 59.4535 45.8543 58.6704 45.2494C57.6463 44.463 56.6222 43.6765 55.5378 42.8901C56.08 45.3099 56.5619 47.7296 56.9836 50.2099C58.9113 60.9778 60.1162 71.9272 60.4174 82.8765C60.5378 87.837 60.6583 92.858 60.839 97.8185L69.9354 97.758L70.2366 82.0901C70.2366 82.0901 74.1523 81.2432 79.0921 80.3358C84.0921 79.4889 89.574 75.9802 88.1282 71.2012Z" fill="#2C8F8A"/>
<path d="M73.1282 70.0518C73.1282 70.0518 78.7306 67.2086 81.3209 70.5963C82.8872 72.5926 83.7306 76.2827 82.6462 78.037C81.5619 79.7914 79.7547 80.0333 79.7547 80.0333L73.1282 70.0518Z" fill="#2C8F8A"/>
<path d="M51.2004 14.458C50.5378 13.6111 49.5137 14.821 49.5137 14.821C49.5137 14.821 50.2968 7.50124 46.6823 5.44445C43.1281 3.38766 38.7305 3.38766 38.7305 3.38766C38.7305 3.38766 33.7305 4.83951 30.9594 6.35185C29.8149 7.01729 28.9112 8.71111 28.3088 10.5259C28.7908 12.5222 28.9715 14.579 29.2727 16.6358C29.3932 17.6642 29.6341 18.6926 29.9353 19.721C30.1763 19.842 30.2968 20.084 30.357 20.3864C30.839 23.1691 32.345 26.6778 34.9956 28.0086C35.357 28.1901 35.6582 28.5531 35.598 29.037C35.357 30.4889 34.6341 31.7593 34.3329 33.2111C34.3329 33.2716 34.3329 33.3321 34.2727 33.3321C35.7185 34.1185 38.4896 35.5099 40.5378 35.5099C43.3691 35.5099 46.8028 32.6667 46.8028 32.6667L44.5137 28.4321C44.5137 28.4321 45.8992 27.4037 46.6823 26.4963C47.4655 25.5889 48.3691 20.9309 48.3691 20.9309C48.3691 20.9309 49.1522 21.6568 49.8149 21.2938C50.4173 20.8704 52.0438 15.5469 51.2004 14.458Z" fill="#FFC489"/>
<path opacity="0.5" d="M46.1402 12.0383C45.2968 11.1309 43.1884 11.5543 42.2245 12.4617C40.7788 13.8531 41.4414 14.7605 42.6462 14.942C43.4294 15.063 44.6342 15.184 45.598 14.579C46.6824 13.9741 47.5258 13.5506 46.1402 12.0383Z" fill="#F7893E"/>
<path d="M44.5137 28.4321C44.5137 28.4321 45.1764 27.9481 45.839 27.3432C45.7185 27.4642 45.5981 27.5247 45.4173 27.6457C45.3571 27.7062 43.7908 28.9765 41.8631 29.3395C40.3571 29.642 38.7306 29.4605 38.6703 27.7667C38.6101 26.5568 39.574 25.7704 40.6583 25.5284C41.3812 25.3469 44.092 25.2864 42.7667 23.8346C42.1041 23.1086 40.5981 23.1691 39.7547 22.6247C38.7306 22.0198 38.7908 21.4753 39.1523 20.4469C38.9113 20.3864 37.4655 19.721 37.345 19.237C37.345 19.237 39.1523 17.2407 37.827 12.6432C37.2246 10.4654 33.4294 12.7642 31.8631 13.9136C29.092 15.9099 30.0559 8.10617 31.3209 6.10988C31.1402 6.17037 31.0197 6.29136 30.839 6.35185C25.9595 9.07408 29.1523 16.1519 29.1523 16.1519C29.1523 16.1519 28.4294 14.337 27.2246 14.7C26.08 15.063 26.4414 17.0593 27.1041 18.8741C27.7667 20.6889 28.4896 21.4753 29.092 21.4753C29.574 21.4753 29.9354 20.8704 29.9354 20.8704C29.9354 20.8704 31.1402 26.0123 31.8631 26.7383C32.9475 27.8272 35.0559 28.7951 35.0559 28.7951L33.2487 32.7877C33.2487 32.7877 37.586 35.5099 40.4173 35.5099C43.2487 35.5099 46.6824 32.6667 46.6824 32.6667L44.5137 28.4321ZM31.3209 20.084C30.5378 19.237 30.2969 17.9062 31.0197 16.8778C31.6222 16.0309 32.345 15.7889 33.3691 16.2123C36.9836 19.1161 35.2969 24.258 31.3209 20.084Z" fill="#FDB177"/>
<g opacity="0.2">
<path d="M34.1524 27.6457C33.3692 25.5284 32.8873 23.2901 32.4054 21.1123C32.4054 21.0519 32.4054 20.9914 32.3451 20.9309C32.0439 20.6889 31.6825 20.3864 31.321 20.0235C30.5379 19.1765 30.2969 17.8457 31.0198 16.8173C31.1403 16.6358 31.2608 16.5148 31.3813 16.3938C31.2608 15.6679 31.1403 14.942 31.0801 14.1556C29.5138 13.8531 30.3572 7.80371 31.4415 6.04939C31.2608 6.10988 31.1403 6.23087 30.9596 6.29136C26.2608 8.95309 29.0319 15.6074 29.2728 16.0914C29.2126 15.9704 28.9114 15.3654 28.4897 15.0025C29.1524 15.8494 29.574 16.9988 29.6945 18.0877C29.7548 18.3901 29.7548 18.7531 29.815 19.0556C29.8753 19.1765 29.8753 19.2975 29.9355 19.4185C30.056 19.9025 30.1162 20.4469 30.1765 20.9914C30.2969 21.5963 31.3813 26.0728 32.0439 26.7383C32.7066 27.4037 33.6704 28.0086 34.3933 28.3716C34.2728 28.1296 34.2126 27.8877 34.1524 27.6457Z" fill="#F88C4C"/>
</g>
<path d="M46.2004 12.8247C45.9594 10.8889 44.1522 11.0704 42.7064 11.6148C42.104 11.7963 40.8992 12.2198 40.8992 12.2198C40.7184 12.8247 41.2606 13.3086 41.4413 13.1877C42.345 12.6432 45.2968 11.6753 46.2004 12.8247Z" fill="#6D3812"/>
<path d="M32.8269 12.9457C33.0679 11.0099 34.8751 11.1914 36.3209 11.7358C36.9233 11.9173 38.1281 12.3407 38.1281 12.3407C38.3088 12.9457 37.7667 13.4296 37.5859 13.3086C36.6823 12.7642 33.7305 11.7963 32.8269 12.9457Z" fill="#6D3812"/>
<path d="M41.6221 14.2765C41.6823 14.0346 42.345 13.3691 43.1883 13.3691C44.0317 13.4296 44.9353 14.3975 44.9353 14.3975C44.9353 14.3975 44.3932 15.0025 43.3691 15.063C42.104 15.1839 41.6221 14.2765 41.6221 14.2765Z" fill="white"/>
<path d="M36.9835 14.8815C36.9835 14.8815 36.2606 13.6111 34.9955 14.1556C33.7907 14.6395 33.7305 15.3654 33.7305 15.3654C33.7305 15.3654 34.4534 15.9099 35.5377 15.7284C36.622 15.5469 36.9835 14.8815 36.9835 14.8815Z" fill="white"/>
<path d="M43.7908 13.9741C43.7908 14.0951 43.6703 14.216 43.5498 14.216C43.4293 14.216 43.3088 14.0951 43.3088 13.9741C43.3088 13.8531 43.4293 13.7321 43.5498 13.7321C43.6703 13.6716 43.7908 13.7926 43.7908 13.9741Z" fill="white"/>
<path d="M36.0801 14.579C36.0801 14.7 35.9596 14.821 35.8391 14.821C35.7186 14.821 35.5981 14.7 35.5981 14.579C35.5981 14.458 35.7186 14.337 35.8391 14.337C35.9596 14.337 36.0801 14.458 36.0801 14.579Z" fill="white"/>
<path opacity="0.5" d="M35.1162 22.3222C35.3572 22.2617 38.2487 21.6568 38.6704 21.7778C39.0921 21.8988 39.3933 22.0197 39.6945 21.9593C40.1765 21.8988 40.2367 21.7173 40.9596 21.6568C41.6825 21.5358 44.0921 21.8383 44.0921 21.8383C44.0921 21.8383 42.4656 24.0765 39.6945 24.258C37.1042 24.4395 35.1162 22.3222 35.1162 22.3222Z" fill="#CE4A21"/>
<path d="M35.8391 22.4432C35.8391 22.4432 38.9114 22.3222 39.815 22.3222C40.7186 22.3222 43.6102 22.0198 43.6102 22.0198C43.6102 22.0198 41.4415 23.4111 39.7548 23.4111C38.068 23.4716 35.8391 22.4432 35.8391 22.4432Z" fill="white"/>
<path d="M19.9354 78.3395C19.9956 78.3395 20.0559 78.3395 20.0559 78.3395C20.7185 78.763 24.9956 82.937 24.3932 84.8728C23.7908 86.8086 21.2607 87.1716 21.5016 87.3531C21.7426 87.5346 25.3571 89.5913 25.598 91.8296C25.7788 93.5234 24.5739 94.1889 23.3089 93.1605C22.0438 92.1321 15.9595 87.3531 15.9595 87.3531L16.2004 79.1259C18.4896 78.642 20.6583 78.5815 21.5016 75.9802C22.2245 76.7062 22.1643 80.3963 21.08 80.8197L19.9354 78.3395Z" fill="#AF6833"/>
<path d="M19.4534 84.0864C19.3932 84.0864 22.2848 81.3642 22.0438 77.7346C21.9836 76.4642 20.4173 76.1012 19.2727 75.9802C17.8872 75.7988 16.9836 76.7062 16.8631 78.0975C16.8028 79.1259 17.4053 80.5173 17.7667 81.3642C18.1281 81.9691 18.7306 83.542 19.4534 84.0864Z" fill="#F4CF98"/>
<path d="M25.5377 92.6161C25.5377 92.737 25.4775 92.7975 25.4775 92.9185C25.4172 93.1 25.2365 93.1605 25.116 93.1605C25.0558 93.5235 24.4534 93.584 24.4534 93.1605C24.4534 93.1605 24.4534 93.1605 24.4534 93.1C24.2727 93.342 23.7907 93.221 23.851 92.858C23.9112 92.6161 23.9112 92.3741 23.9715 92.1926C23.4895 91.8296 23.1281 91.2852 22.7064 90.8012C21.6221 89.5914 20.116 89.1679 18.7305 88.442C18.0076 88.079 18.1883 87.0506 18.7305 86.8691L18.7907 86.8086C18.4293 86.5062 18.2486 85.9012 18.7305 85.5383C19.8148 84.6309 21.6823 85.7803 23.0076 86.6877C23.5498 86.3852 24.0919 85.9012 24.3329 85.2358C23.4293 86.4457 21.5016 85.5988 20.5377 84.8124C18.9715 83.542 17.7064 81.9087 16.6221 80.2753C16.3209 79.8519 16.5016 79.3679 16.8028 79.1259L16.3811 79.1864L16.1401 87.4136C16.1401 87.4136 22.2245 92.2531 23.4895 93.221C24.5739 94.0679 25.5377 93.7049 25.7787 92.6161C25.598 92.6161 25.5377 92.6161 25.5377 92.6161Z" fill="#A35928"/>
<path d="M15.2365 60.9173C14.8148 60.6753 13.9715 61.1593 14.2124 61.7037C14.6341 62.6716 15.357 61.4012 15.357 60.9173H15.2365Z" fill="black"/>
<path d="M22.4654 66.7852C25.9594 65.9383 31.5016 67.3901 32.2847 71.5642C32.4654 72.4111 32.0437 73.8025 30.9594 73.742C30.116 73.6815 29.3329 72.1691 28.6702 71.6852C26.863 70.2333 25.598 70.1123 23.3088 70.1728C21.9233 72.2296 22.0437 74.5889 20.4775 76.5852C19.6341 77.6136 17.8871 78.521 16.5618 77.9765C14.6341 77.1296 15.1763 74.7099 15.6582 73.137C16.1401 71.6247 16.5618 70.0518 16.9835 68.479C17.2245 67.4506 17.2245 66.3617 18.369 66.0593C19.3329 65.8173 20.7787 66.1198 21.6823 66.4827C22.0437 66.6642 22.1642 66.8457 22.4654 66.7852Z" fill="#A35928"/>
<path d="M3.18841 67.9951C2.04383 69.0235 0.116124 71.0198 1.20046 74.2259C2.2848 77.4321 6.74263 78.158 14.574 78.521C19.8752 78.763 26.7426 76.0407 27.1643 75.7988C27.6462 75.5568 30.8993 69.1444 30.8993 69.1444C30.8993 69.1444 31.0197 66.4222 30.1764 65.3938C27.4655 62.2481 26.5619 62.7926 26.2607 63.2161C25.9595 63.0346 25.2366 63.1556 25.5378 63.7C24.6944 63.942 25.1161 64.4259 26.1402 66.3012C26.5619 67.0272 26.0197 67.8741 25.2366 67.8136C24.4535 67.7531 25.1764 66.7852 25.1161 66.1198C24.9956 65.0914 24.092 64.7889 24.092 64.7889L22.6462 67.0272L22.7065 71.5037C22.7065 71.5037 12.6462 70.9593 10.2968 68.6605C7.88721 65.9988 4.15227 67.0877 3.18841 67.9951Z" fill="#FFC489"/>
<path d="M30.6584 66.0593C30.7186 66.7247 29.6343 67.1481 29.3331 66.4222C28.9716 65.6358 27.9475 64.6074 27.2849 64.1235C27.7066 64.6074 28.3692 65.5148 28.6704 66.0593C29.0921 66.8457 28.2487 67.5111 27.827 66.7247C27.4053 65.9383 26.8029 64.9099 26.0198 64.3049C26.2608 64.5469 27.2246 65.9383 27.2849 66.4827C27.4656 67.3296 26.0198 68.1765 25.2969 68.1161C24.5138 68.0556 25.3572 66.9667 25.2969 66.2407C25.2969 65.9383 25.1764 65.6963 25.056 65.5148C24.815 66.2407 24.3933 66.9062 23.7307 67.3296C23.6102 67.3901 23.5499 67.3901 23.4294 67.4506C23.068 67.5111 22.8873 67.8136 22.8873 68.1765L23.309 73.1975C23.309 75.3148 18.6704 77.0691 8.24872 75.4963C6.26077 75.1938 2.0439 73.742 1.08005 71.2012C0.899324 72.1086 0.899324 73.1975 1.32101 74.4074C2.40535 77.6136 6.62222 78.521 14.4535 78.4605C20.056 78.4 26.8632 76.2222 27.2849 75.9802C27.7668 75.7383 30.9596 69.1444 30.9596 69.1444C30.9596 69.1444 31.08 67.5111 30.6584 66.0593Z" fill="#FDB177"/>
<path d="M30.9596 69.084C30.9596 69.084 29.6945 70.2333 28.9716 71.8667C28.2487 73.5 27.4656 75.8593 27.4656 75.8593C27.4656 75.8593 28.6704 74.1654 29.333 72.7136C29.9355 71.2617 30.9596 69.084 30.9596 69.084Z" fill="#F88C4C"/>
<path d="M38.9113 49.7864C37.7667 48.8185 36.7426 48.0926 36.2004 46.6407C35.2968 44.1 34.9956 41.4383 33.9113 38.958C33.2486 37.3852 32.2848 35.0864 30.5378 34.3605C30.7788 32.6062 32.6462 31.4568 34.3932 30.7309C34.4535 30.6099 34.7547 29.5815 34.7547 29.5815C34.2727 29.763 33.7306 30.0049 33.2486 30.2469C31.6221 31.0938 29.8149 32.2432 29.5137 34.179C24.6342 33.8161 27.2245 43.1321 28.1282 45.1889C28.9113 47.0037 29.5739 48.5765 28.8511 50.5124C28.4896 51.5407 27.8872 52.4482 28.0679 53.5975C28.4896 55.9568 31.1402 56.4407 33.0679 56.5617C33.6703 56.6222 33.7306 55.6543 33.0679 55.5938C31.8631 55.4728 30.2968 55.4124 29.4535 54.384C28.4294 53.1136 29.2727 51.9642 29.7547 50.8148C30.3571 49.3025 30.1764 47.9111 29.6342 46.3383C28.9113 44.463 28.0679 42.6481 27.7667 40.6519C27.586 39.5025 27.4655 38.1716 27.7065 37.0222C27.7667 36.6593 27.8872 36.2963 28.0679 35.9938C28.6703 35.0864 30.2968 35.1469 31.0197 35.8728C32.345 37.2037 33.1884 39.6235 33.7908 41.3778C34.333 43.0111 34.5739 44.7654 35.0559 46.3988C35.4776 47.7296 36.08 48.8185 37.1041 49.6654C37.7065 50.2099 38.4896 50.5728 38.9715 51.2988C39.8149 52.5691 39.2125 54.2025 37.7667 54.6864C37.1643 54.8679 37.4053 55.8358 38.0077 55.6543C39.5137 55.1099 40.5378 53.658 40.2968 52.0247C40.2366 51.0568 39.5739 50.3914 38.9113 49.7864Z" fill="black"/>
<path d="M50.8389 33.0901C49.3328 31.5173 47.0437 30.0049 44.9353 29.2185L45.5979 30.4889C47.7666 31.5173 49.5738 32.9086 51.0196 34.8444C54.2124 39.2 51.9232 44.342 49.0316 48.1531C45.9594 52.0852 42.6461 55.8963 39.4533 59.7074C39.0316 60.1914 39.7545 60.8568 40.1762 60.3728C42.3449 57.7716 44.5738 55.1099 46.7425 52.5086C48.4895 50.3914 50.3569 48.3346 51.7425 45.9148C54.1521 41.6802 54.2726 36.7802 50.8389 33.0901Z" fill="black"/>
<path d="M35.7185 61.1593L39.4534 59.7074L40.1763 60.3728C40.1763 60.3728 40.3571 63.2765 40.0559 63.2765C39.8149 63.1556 35.7185 61.1593 35.7185 61.1593Z" fill="black"/>
<path d="M39.5739 64.4864C39.333 64.4259 34.9956 62.2481 34.9956 62.2481L35.7185 61.1593L40.0558 63.216L39.5739 64.4864Z" fill="#726051"/>
<path d="M36.1401 14.216C35.8992 14.0951 35.5979 14.1556 35.2967 14.216C35.2365 14.2765 35.116 14.2765 35.0558 14.337C34.9955 14.337 34.8751 14.3975 34.8148 14.3975C34.6341 14.458 34.6341 14.458 34.4534 14.5185C34.4534 14.5185 34.4534 15.7889 35.4775 15.7284C36.622 15.5469 36.3208 14.458 36.1401 14.216C36.2004 14.2765 36.0799 14.2765 36.1401 14.216Z" fill="#91450C"/>
<path d="M42.4656 13.7321C42.3451 13.7926 42.2849 13.8531 42.2849 13.9136C42.0439 14.579 42.6463 15.0025 43.2487 15.0025C43.7909 15.0025 44.2126 14.5185 44.1523 13.9741C43.5499 13.7321 43.1282 13.3691 42.4656 13.7321Z" fill="#91450C"/>
<path d="M35.8992 14.8815C35.8992 15.1235 35.7184 15.3654 35.4172 15.3654C35.1763 15.3654 34.9353 15.1839 34.9353 14.8815C34.9353 14.6395 35.116 14.3975 35.4172 14.3975C35.6582 14.3975 35.8992 14.579 35.8992 14.8815Z" fill="#1C0B00"/>
<path d="M43.7305 14.2161C43.7305 14.458 43.5497 14.7 43.2485 14.7C43.0076 14.7 42.7666 14.5185 42.7666 14.2161C42.7666 13.9741 42.9473 13.7321 43.2485 13.7321C43.4895 13.7321 43.7305 13.9741 43.7305 14.2161Z" fill="#1C0B00"/>
<path d="M35.1763 14.7605C35.1763 14.8815 35.0558 15.0025 34.9353 15.0025C34.8148 15.0025 34.6943 14.8815 34.6943 14.7605C34.6943 14.6395 34.8148 14.5185 34.9353 14.5185C35.0558 14.5185 35.1763 14.6395 35.1763 14.7605Z" fill="white"/>
<path d="M35.9593 15.1839C35.9593 15.2444 35.8991 15.3654 35.7786 15.3654C35.7184 15.3654 35.5979 15.3049 35.5979 15.1839C35.5979 15.1235 35.6581 15.0025 35.7786 15.0025C35.8991 15.0025 35.9593 15.063 35.9593 15.1839Z" fill="white"/>
<path d="M42.7065 14.458C42.8396 14.458 42.9475 14.3497 42.9475 14.2161C42.9475 14.0824 42.8396 13.9741 42.7065 13.9741C42.5735 13.9741 42.4656 14.0824 42.4656 14.2161C42.4656 14.3497 42.5735 14.458 42.7065 14.458Z" fill="white"/>
<path d="M43.7909 14.579C43.7909 14.6395 43.7307 14.7605 43.6102 14.7605C43.5499 14.7605 43.4294 14.7 43.4294 14.579C43.4294 14.5185 43.4897 14.3975 43.6102 14.3975C43.7307 14.458 43.7909 14.5185 43.7909 14.579Z" fill="white"/>
<path d="M41.6221 14.2765C41.6221 14.2765 42.1642 13.1877 43.1281 13.2482C44.0919 13.3086 44.3329 13.5506 44.5739 13.7926C44.8148 13.9741 44.9956 14.3975 44.9956 14.3975C44.9956 14.3975 44.1522 13.7321 43.1281 13.8531C42.104 13.9136 41.6221 14.2765 41.6221 14.2765Z" fill="#FFC78F"/>
<path d="M36.9836 14.8815C36.8631 14.7 36.8631 14.458 36.6824 14.337C36.5017 14.0951 36.321 13.9741 36.0197 13.9136C35.4173 13.7926 34.6342 13.9136 34.1523 14.3975C34.0318 14.579 33.9113 14.7605 33.7908 14.942C33.7306 15.063 33.7306 15.3654 33.6101 15.4864C33.6703 15.2444 33.9716 15.0025 34.1523 14.8815C34.4535 14.6395 34.7547 14.5185 35.1161 14.458C35.4173 14.3975 35.839 14.3975 36.1402 14.458C36.5017 14.458 36.6824 14.7 36.9836 14.8815Z" fill="#FFC78F"/>
<path d="M33.851 15.4259C34.0317 15.063 34.6944 14.6395 35.0558 14.579C35.357 14.5185 35.7787 14.5185 36.0799 14.579C36.3811 14.6395 36.5016 14.8815 36.8028 14.8815C36.863 14.8815 36.9233 14.821 36.9233 14.7605C36.6823 14.2765 35.598 14.1556 35.1161 14.2765C34.7546 14.337 34.3932 14.3975 34.092 14.6395C33.851 14.7605 33.61 15.063 33.5498 15.3654C33.4896 15.4864 33.7305 15.6074 33.851 15.4259Z" fill="#6D3812"/>
<path d="M41.6824 14.337C42.1644 14.1556 42.4656 13.9136 43.068 13.9136C43.3692 13.9136 43.7306 13.9136 44.0318 14.0346C44.333 14.1556 44.5138 14.337 44.815 14.3975C44.8752 14.3975 44.9355 14.337 44.9355 14.2765C44.7547 13.6111 43.6704 13.5506 43.1282 13.6111C42.4656 13.6111 42.1041 13.8531 41.562 14.216C41.5017 14.2765 41.562 14.3975 41.6824 14.337Z" fill="#6D3812"/>
<path d="M13.3089 58.0741C13.4294 57.3482 12.7667 56.8037 12.1041 56.6222C11.0197 56.3802 9.99562 57.4691 9.33297 58.4975C8.30887 60.0704 6.74261 61.5827 5.95947 63.2161C6.80285 63.7 8.48959 64.3049 9.45345 64.063C10.1161 63.8815 10.598 63.2161 11.08 62.7926C10.1763 63.3975 9.69441 65.1519 9.51369 66.1803C11.3209 67.3296 12.4655 67.6926 14.5137 68.0556C15.5378 68.237 18.3089 68.358 19.333 68.1765C20.4173 67.8136 21.9233 67.1481 22.4655 66.7247C24.1522 65.3938 24.5137 63.6395 25.2366 62.5506C24.3932 60.6753 22.7667 60.5543 22.5257 59.8284C23.4294 60.3728 26.5016 60.9778 28.3089 59.5864C27.7667 57.8926 23.6101 56.1988 21.8631 55.3519C20.5378 54.7469 19.0318 55.0494 18.9715 56.6827C16.8631 56.8037 15.1161 56.8037 13.3089 58.0741Z" fill="#C17B3D"/>
<path d="M16.4413 60.6148C16.2606 59.6469 15.357 59.4654 14.5136 59.6469C13.4895 59.8889 12.7064 60.7358 13.4293 61.7642C13.7907 62.3086 14.3329 62.6716 14.9955 62.6111C16.3811 62.4296 16.5016 60.9778 16.4413 60.6148Z" fill="#F4CF98"/>
<path d="M28.2486 59.6469C28.1883 59.5259 28.1281 59.4049 28.0679 59.284C25.0558 60.0704 20.8992 58.0741 19.5739 55.4123C19.1522 55.6543 18.9112 56.1383 18.9112 56.7432C18.1883 56.7432 17.5257 56.7432 16.9233 56.8037C18.61 56.6827 19.7546 58.1346 20.9594 59.284C21.9233 60.2519 24.2727 61.8852 22.4654 63.2765C20.9594 64.4259 19.0317 63.7 17.6462 62.6716C16.3209 64.063 14.7546 66.2407 12.7064 65.2123C11.5618 64.6074 11.5016 62.7321 12.1642 61.6432C13.1281 59.9494 14.0317 57.8321 16.0197 57.0457C16.2606 56.9247 16.5016 56.8642 16.7425 56.8642C15.598 56.9852 14.4534 57.2877 13.3691 58.0741C13.4895 57.4086 12.9474 56.8642 12.2847 56.6827C11.8028 59.7679 9.93532 62.9741 6.62207 63.458C6.56183 63.458 6.44134 63.5185 6.3811 63.5185C7.28472 63.942 8.61002 64.3654 9.45339 64.1235C9.87508 64.0025 10.1763 63.7 10.5377 63.3975C9.99556 64.1839 9.69436 65.3938 9.57387 66.2407C11.3811 67.3901 12.5257 67.7531 14.5739 68.116C15.598 68.2975 18.3691 68.4185 19.3932 68.237C20.4775 67.8741 22.345 67.4506 22.8269 66.9062C24.1522 65.3938 24.6341 63.7 25.2968 62.6111C24.4534 60.7358 22.8269 60.6148 22.5859 59.8889C23.4293 60.4333 26.5016 61.0383 28.2486 59.6469Z" fill="#A35928"/>
<path d="M12.2246 69.6889C12.9475 70.0518 13.7306 70.2333 14.574 70.1728C14.6342 71.5037 15.0559 72.8346 14.8752 74.1654C14.5138 76.8877 17.1041 77.1296 17.7668 75.1938C18.3089 73.5605 17.827 70.3543 17.4053 68.9025C17.1644 68.237 16.9836 67.5716 16.2608 67.2691C14.9957 66.7852 14.0318 66.4827 13.3692 66.4222C13.3089 66.7852 12.2246 69.6889 12.2246 69.6889Z" fill="#C17B3D"/>
<path d="M16.8027 75.8593C16.7425 75.9802 16.6823 76.0407 16.622 76.1617C16.3811 76.4642 15.9594 76.1012 16.1401 75.8593C16.2003 75.7988 16.0196 75.7988 15.9594 75.8593C15.7184 76.1012 15.357 75.6778 15.5979 75.4358C15.6582 75.3753 15.7786 75.2543 15.8389 75.1938C15.6582 74.8914 15.5979 74.5889 15.7184 74.1654C16.0196 73.0765 16.0196 71.6852 15.8991 70.5358C15.7184 68.842 14.6341 68.5395 13.1883 67.9951C13.0678 67.9346 13.0076 67.9346 12.9473 67.8741C12.6461 68.7815 12.2847 69.7494 12.2847 69.7494C13.0678 69.9914 13.8509 70.2333 14.6341 70.3543C14.6943 71.6852 15.116 72.8951 14.9353 74.2259C14.6341 76.4037 16.2606 77.0086 17.2244 76.1617C17.0437 76.2222 16.7425 76.0407 16.8027 75.8593Z" fill="#A35928"/>
<path d="M17.2849 61.1593C16.5017 61.8247 14.3933 63.337 14.6945 64.6074C15.056 65.9988 17.8873 66.2407 18.9716 66.7852C19.2728 65.6358 20.5981 65.2728 20.9596 64.1235C21.6825 61.6432 18.4294 61.5827 17.2849 61.1593Z" fill="black"/>
<path opacity="0.5" d="M16.4415 64.6679C17.0439 64.9704 17.8271 65.0914 18.4897 64.9704C19.9957 64.6679 20.8993 63.0951 20.7186 62.4901C19.9355 61.6432 18.1283 61.5222 17.3451 61.2198C16.803 61.7037 15.7186 62.4901 15.1162 63.3975C15.2367 63.942 16.0198 64.4864 16.4415 64.6679Z" fill="#544C47"/>
<path d="M18.5498 62.5506C18.4895 61.8852 16.9835 62.0667 16.863 62.7321C16.7425 63.458 18.61 63.216 18.4293 62.1877L18.5498 62.5506Z" fill="#544C47"/>
<path d="M9.81499 81.0012C9.81499 81.0012 8.30897 83.058 8.97162 84.3889C9.63427 85.7198 10.5981 86.0222 10.5981 86.0222C10.5981 86.0222 4.93547 87.2321 4.69451 92.7975C4.57403 95.6407 6.01981 98.1815 8.00776 97.2741C8.85114 96.8506 8.61017 96.0037 8.42945 94.1889C7.94752 89.5914 12.1041 88.6235 12.1041 88.6235L12.3451 90.5593C12.3451 90.5593 14.815 90.3173 16.8632 92.2531C18.9716 94.1889 19.574 95.2778 20.8993 94.6124C22.1644 93.9469 22.2246 92.858 20.8391 91.4062C19.3933 89.9543 17.6463 88.8049 17.6463 88.8049C17.6463 88.8049 19.9957 88.0185 20.1162 86.6272C20.1764 85.1753 18.0078 81.3037 18.0078 81.3037L17.2849 78.3395C17.2849 78.3395 14.815 78.4605 14.0319 78.4605C13.309 78.4605 11.321 78.3395 11.321 78.3395L9.81499 81.0012Z" fill="#C17B3D"/>
<path d="M21.6824 93.9469C21.562 94.0679 21.3812 94.1284 21.2005 94.0074L21.1403 93.9469C21.1403 94.0074 21.1403 94.0679 21.08 94.1284C21.0198 94.3099 20.7788 94.3704 20.5981 94.3099C20.4174 94.2494 20.3571 94.0074 20.4174 93.8259C20.4174 93.7049 20.4776 93.6445 20.4776 93.5235C20.4174 93.7049 20.3571 93.8864 20.2969 94.0074C19.9957 94.3704 19.4535 93.9469 19.6945 93.584C19.8752 93.342 19.815 93.0395 19.6945 92.737C18.1885 91.5877 17.1041 90.2568 15.0559 89.9543C14.333 89.8333 14.2126 89.0469 14.5138 88.6235C14.6342 88.321 14.8752 88.079 15.3571 88.1395C16.2005 88.2605 17.1041 88.3815 17.9475 88.6235C18.6101 88.3815 19.9957 87.6556 20.0559 86.5667C20.0559 86.3852 20.0559 86.1432 19.9957 85.9012C18.8511 87.7161 16.4415 87.2321 14.815 86.2037C13.068 85.0543 12.0439 82.8766 11.8029 80.8198C11.7427 80.2148 11.9836 79.0654 12.0439 78.3395L11.2608 78.279L9.81497 81.0012C9.81497 81.0012 8.30894 83.058 8.97159 84.3889C9.63424 85.7198 10.5981 86.0222 10.5981 86.0222C10.5981 86.0222 10.5379 86.0222 10.4174 86.0827C10.8391 86.6272 10.8993 87.6556 10.0559 88.079C8.85111 88.684 7.76678 89.6519 7.28485 90.9827C6.9234 91.8901 7.16437 92.737 7.28485 93.7049C7.46557 94.9148 7.64629 96.3667 6.98364 97.4556C7.34509 97.5161 7.64629 97.4556 8.06798 97.2741C8.91135 96.8506 8.67039 96.0037 8.48967 94.1889C8.00774 89.5914 12.1644 88.6235 12.1644 88.6235L12.4053 90.5593C12.4053 90.5593 14.8752 90.3173 16.9234 92.2531C19.0318 94.1889 19.6342 95.2778 20.9595 94.6124C21.2608 94.4309 21.5017 94.1889 21.6824 93.9469Z" fill="#A35928"/>
<path d="M63.2485 78.884C62.8268 79.5494 60.8991 84.0259 62.8268 85.7802C64.7545 87.4741 67.3449 87.958 67.3449 87.958C67.3449 87.958 62.7666 92.1926 63.4292 94.0074C64.0316 95.6407 65.9593 95.5802 67.0437 94.1284C68.128 92.616 74.6943 87.7765 74.6943 87.7765L70.5979 78.521L63.2485 78.884Z" fill="#E2A049"/>
<path d="M70.5378 78.4605L65.6582 78.763C65.839 78.9444 65.9594 79.1864 66.0197 79.4284C66.5619 80.8197 66.0197 82.0296 66.0197 83.421C66.0197 85.6593 68.1884 85.5383 69.1522 86.9901C69.9956 88.2 69.2125 89.5914 68.2486 90.4988C67.5257 91.2247 66.6221 91.7086 66.0197 92.5555C65.6582 93.0395 65.0558 93.4025 65.1161 94.1284C65.1161 94.4914 65.0558 94.7938 64.8149 94.5518C64.6341 94.4309 64.5739 94.2494 64.4534 94.0679C64.4534 94.1889 64.5137 94.2494 64.5137 94.3704C64.5739 94.7333 64.0317 94.7938 63.9715 94.4309C63.9715 94.2494 63.9112 94.1284 63.9112 93.9469C63.7908 94.0679 63.5498 94.1284 63.4293 93.8864C63.3691 93.7654 63.3691 93.5839 63.3691 93.463L63.3088 93.4025C63.3088 93.584 63.3088 93.7654 63.3691 93.9469C63.9715 95.5802 65.8992 95.5197 66.9835 94.0679C68.0679 92.5555 74.6341 87.716 74.6341 87.716L70.5378 78.4605Z" fill="#CC852F"/>
<path d="M68.1281 79.9123C68.1281 79.9123 65.7787 83.542 68.3691 85.7198C70.9595 87.8975 72.9474 89.3494 72.9474 89.3494C72.9474 89.3494 72.104 90.0148 69.9354 91.9506C68.0077 93.7049 66.1402 96.4876 68.0679 97.5765C68.7908 98 70.2968 97.6975 71.4414 96.4272C72.8872 94.8543 78.4293 89.9543 78.4293 89.9543C78.4293 89.9543 76.3209 82.2716 76.3209 82.937C76.3209 83.6025 81.0197 86.8086 85.5378 85.2963C90.0558 83.7839 90.8992 79.0654 89.3932 78.4C87.8872 77.7346 87.2848 78.4 86.6824 80.3358C85.839 83.058 84.092 82.7556 82.586 82.6346C80.4775 82.5136 78.1884 79.2469 78.1884 79.2469L68.1281 79.9123Z" fill="#E2A049"/>
<path d="M89.3329 78.4605C89.2124 78.4 89.0919 78.4 89.0317 78.3395C88.9714 78.7025 88.8509 79.1259 88.7907 79.4284C88.2485 81.1222 87.5256 82.3926 85.9594 83.3C82.6461 85.2358 76.9835 83.6025 76.5618 79.4284L74.5738 79.5494C74.6341 79.6704 74.6341 79.7914 74.6341 79.9123C74.5136 81.3037 74.3931 82.6951 74.5136 84.1469C74.6341 85.1148 74.875 86.0827 74.9353 87.0506C74.9955 87.6556 74.9353 88.2 74.875 88.7444C74.875 88.9864 74.875 89.2889 74.8148 89.5309C74.5136 91.4062 73.128 92.6765 71.863 93.9469C71.0196 94.7333 69.2726 96.4272 69.1521 97.1531C69.0919 97.516 68.7907 97.6975 68.6702 97.3951C68.61 97.2136 68.5497 97.0321 68.4895 96.8506C68.4292 96.8506 68.4292 96.8506 68.369 96.8506C68.369 96.9716 68.369 97.0926 68.369 97.2136C68.369 97.5765 67.8268 97.516 67.8268 97.1531C67.8268 97.0321 67.8268 96.9111 67.8268 96.7901C67.8268 96.7901 67.8268 96.7901 67.7666 96.7901V96.8506C67.7666 97.1531 67.4654 97.1531 67.2847 96.9716C67.4051 97.2741 67.6461 97.516 67.9473 97.6975C68.6702 98.121 70.1762 97.8185 71.3208 96.5481C72.7666 94.9753 78.3088 90.0753 78.3088 90.0753C78.3088 90.0753 76.8027 84.6914 76.3208 83.3605C77.1642 84.3284 81.3811 86.8086 85.357 85.4173C89.9955 83.784 90.8389 79.0654 89.3329 78.4605Z" fill="#CC852F"/>
<path d="M51.9834 49.121C52.5256 47.5481 53.9713 46.3988 54.7545 44.9469C55.2364 44.0395 55.4774 43.1321 56.0195 42.2852C57.1039 40.7123 60.1762 39.8654 62.1039 40.2284C64.2123 40.6519 65.5979 43.616 67.2846 44.8259C68.128 45.4309 70.4171 46.5802 70.7183 47.7296C71.14 49.242 68.8509 52.3272 68.1882 53.537C66.4412 56.8037 64.9352 56.5012 61.9232 56.9852C60.0557 57.2877 59.634 56.8642 58.3689 55.7148C56.2605 53.7185 53.2485 53.2951 51.9834 49.121Z" fill="#E2A049"/>
<path d="M57.5859 62.1272C57.5859 62.1272 56.5618 60.8568 54.8148 60.2518C52.2244 59.4049 51.0799 60.7358 50.2365 62.9136C48.9714 66.1802 48.0678 70.6568 50.4775 71.3222C52.8269 71.9877 54.2124 65.2123 54.2124 65.2123L56.9232 70.2938C56.9232 70.2938 56.0799 70.7173 54.2726 72.7741C51.7425 75.6778 49.4534 77.6136 51.2003 78.8235C53.6702 80.4568 54.2124 78.5815 56.3208 76.8876C58.4895 75.1938 62.2244 72.9556 62.2244 72.9556C62.2244 72.9556 66.0196 73.8025 70.357 73.1975C74.6943 72.5926 76.622 71.8667 75.7184 69.7494C74.9353 67.8741 73.1281 65.8173 71.8028 63.2765C69.0919 57.8321 68.4293 55.0494 67.104 53.8395C64.9955 51.9642 59.5738 51.3593 57.4654 55.7753C56.2606 58.2556 57.5859 62.1272 57.5859 62.1272Z" fill="#E2A049"/>
<path d="M58.4293 65.0914C59.092 63.942 58.1884 62.4296 57.345 61.1593C57.4655 61.7642 57.6462 62.1272 57.6462 62.1272C57.6462 62.1272 56.6221 60.8568 54.8751 60.2518C52.2847 59.4049 51.1402 60.7358 50.2968 62.9136C49.0317 66.1802 48.1281 70.6568 50.5378 71.3222C52.8872 71.9877 54.2727 65.2123 54.2727 65.2123L56.5016 67.2086C56.5016 66.6037 56.8028 65.9383 57.5257 65.5753C57.7667 65.3938 58.0679 65.2728 58.4293 65.0914Z" fill="#CC852F"/>
<path d="M63.2485 73.137C63.9112 71.8667 65.0558 69.6284 63.9112 68.6C62.5859 67.3901 60.2967 68.358 58.9714 69.0235C58.8509 69.084 58.7305 69.1444 58.61 69.2049C58.61 69.2049 56.3811 70.4148 54.5136 72.4111C51.9835 75.3148 49.3931 77.6136 51.2003 78.763C53.6702 80.3963 54.2124 78.521 56.3208 76.8272C58.4895 75.1333 62.4052 73.016 62.4052 73.016C62.4052 73.016 63.0076 72.9556 63.2485 73.137Z" fill="#CC852F"/>
<path d="M76.8631 71.3222C76.08 69.4469 73.1884 65.7568 71.9233 63.1556C69.2125 57.7111 68.5498 54.9284 67.2245 53.7185C66.9836 53.537 66.7426 53.3556 66.4414 53.1741C68.3089 59.7074 70.4173 66.2407 71.1402 73.016C74.8751 72.4111 76.8631 71.3222 76.8631 71.3222Z" fill="#CC852F"/>
<path d="M73.6702 66.0593C73.0678 65.1518 72.4654 64.3049 71.9232 63.0951C69.7545 58.679 68.9112 56.0173 67.9473 54.5049C66.1401 55.2914 64.5136 56.7432 63.2485 58.2556C61.8027 60.7963 61.9232 64.2444 64.0919 66.3012C66.7425 68.9025 70.8991 68.4185 73.6702 66.0593Z" fill="#AD652F"/>
<path d="M67.7666 54.3235C67.8268 54.3839 68.3088 55.1704 68.3088 55.1704C68.3088 55.1704 66.3208 57.4691 63.0678 57.8926C59.8148 58.316 57.0437 57.1667 57.0437 57.1667C57.0437 57.1062 57.2244 56.5617 57.3449 56.1383C57.4654 55.7148 57.5859 55.4123 57.5859 55.4123C57.5859 55.4123 59.9353 56.4407 62.2244 56.1988C64.6943 56.0173 67.7666 54.3235 67.7666 54.3235Z" fill="#1200FF"/>
<path d="M55.4173 60.4938C55.2366 60.4333 55.0558 60.3123 54.8751 60.2518C52.2847 59.4049 51.1402 60.7358 50.2968 62.9136C49.0317 66.1802 48.1281 70.6568 50.5378 71.3222C52.8872 71.9877 54.2727 65.2123 54.2727 65.2123L54.9353 65.8173C54.9956 64.3049 55.2968 62.7926 55.7787 61.2802C55.6582 61.0383 55.5378 60.7358 55.4173 60.4938Z" fill="#AD652F"/>
<path d="M56.2607 48.6975C56.8632 46.3988 58.6704 45.1284 60.6583 46.9432C61.2005 44.7049 63.7909 44.9469 64.9354 46.5197C65.3571 47.1247 65.6583 48.1531 64.6945 48.2136C64.0318 48.2741 63.9716 47.8506 63.1282 48.0321C61.2607 48.4556 64.0318 50.6333 64.7547 51.1778C66.4415 52.5086 66.2607 53.3555 66.2607 54.8074C66.2607 56.3197 64.2125 57.3481 62.3451 57.5901C60.3571 57.8926 58.1885 56.9247 57.2848 54.8679C56.9234 54.021 57.0439 53.2951 58.1282 51.7222C58.8511 50.6938 59.7547 49.6049 58.7306 48.879C58.0077 48.3346 58.0077 48.758 57.4053 49.1815C57.0439 49.5444 56.2607 49.4235 56.2607 48.6975Z" fill="#F2B368"/>
<path d="M65.1161 51.6012C64.8751 53.537 63.851 55.1099 61.4414 55.3519C59.8751 55.5333 58.0076 54.8679 57.1642 53.5975C57.0438 54.0815 57.104 54.5049 57.2847 54.9284C58.1883 57.0457 60.357 57.9531 62.345 57.6506C64.2124 57.3481 66.2606 56.3802 66.2606 54.8679C66.2606 53.5975 66.3811 52.7506 65.1161 51.6012Z" fill="#C67F30"/>
<path d="M56.863 50.1494C56.863 50.1494 56.8028 48.637 57.7667 48.4556C58.5498 48.3346 58.9112 49.121 58.9112 49.121C58.9112 49.121 59.0317 49.9679 57.8871 50.3914C57.345 50.6333 56.863 50.1494 56.863 50.1494Z" fill="#040404"/>
<path d="M64.9355 49.121C64.9355 49.121 64.7547 47.6086 63.7306 47.6086C62.9475 47.6086 62.7065 48.516 62.7065 48.516C62.7065 48.516 62.7668 49.4235 63.9114 49.6049C64.574 49.6654 64.9355 49.121 64.9355 49.121Z" fill="#040404"/>
<path d="M55.1763 44.342C55.1763 44.221 51.4414 47.0642 51.2004 48.9395C51.0197 50.2704 52.1041 51.8432 52.7667 52.8716C53.5498 54.021 55.8992 56.6222 56.5017 56.0173C57.0438 55.4728 55.2366 52.0247 55.2366 50.3309C55.2366 48.5765 56.3209 46.0963 55.1763 44.342Z" fill="#AD652F"/>
<path d="M65.1763 42.5272C65.357 44.6444 66.4413 47.0037 67.2245 49.0605C67.8871 50.8753 68.6702 53.8395 69.8751 53.8395C70.598 53.8395 71.0799 50.3309 71.2004 48.758C71.2606 48.0926 71.4413 47.2457 71.1401 46.6407C70.8389 46.0358 69.9956 45.7938 69.4534 45.4309C68.0076 44.6444 66.863 42.8901 65.1763 42.5272Z" fill="#AD652F"/>
<path d="M55.1763 50.3309C55.1763 48.637 56.2004 46.3383 55.2967 44.5839C55.4775 45.6123 55.1763 46.7617 54.8148 47.7901C54.5738 48.5765 54.2124 49.242 54.2124 49.9679C54.2726 51.2988 54.8751 52.6296 54.9353 53.9605C54.9353 54.3839 54.8751 54.8074 54.6341 55.1099C55.357 55.7753 56.0799 56.2593 56.3811 56.0173C57.0437 55.4123 55.1763 52.0247 55.1763 50.3309Z" fill="#7F4218"/>
<path d="M69.6343 51.9037C68.6102 50.2099 67.7066 48.4556 67.0439 46.6407C66.562 45.3704 65.8993 44.1 65.6584 42.7086C65.4777 42.6481 65.2969 42.5877 65.1162 42.5272C65.2969 44.6444 66.3813 47.0037 67.1644 49.0605C67.8271 50.8753 68.6102 53.8395 69.815 53.8395C70.056 53.8395 70.2969 53.416 70.4777 52.7506C70.1765 52.5691 69.8752 52.2667 69.6343 51.9037Z" fill="#7F4218"/>
<path opacity="0.6" d="M59.9955 53.4765C61.0196 54.0815 60.8389 52.2062 60.8389 51.7222C60.8389 50.9358 60.9594 49.0605 60.2365 48.516C60.116 48.5765 58.7305 52.7506 59.9955 53.4765Z" fill="white"/>
<path opacity="0.6" d="M61.1403 48.5765C61.1403 49.7864 60.9596 52.9926 62.7066 52.9926C62.8271 51.9642 61.9837 48.9395 61.1403 48.5765Z" fill="white"/>
<path d="M60.1763 53.9C59.7546 54.8074 59.5739 55.5938 59.2727 56.5617C59.6342 56.0778 60.839 56.5012 61.9233 56.3802C63.0679 56.2593 64.092 55.5938 64.6342 55.8963C63.9113 55.3519 63.4896 54.8074 62.9474 54.142C62.4052 53.2346 61.3209 53.3556 60.1763 53.9Z" fill="#685035"/>
<path d="M59.875 53.3556C59.7545 54.3235 59.3931 54.3235 60.4172 54.6259C61.0196 54.8074 61.4413 55.1099 61.863 55.5333C62.0437 54.8679 62.2847 54.3839 63.1883 54.021C63.2485 53.537 63.3088 52.9926 62.8871 52.8111C62.1642 52.4481 60.2365 52.8716 59.875 53.3556Z" fill="#040404"/>
<path d="M51.8629 76.0407C51.4412 76.3432 51.0195 76.8272 51.0195 77.4321C51.381 77.4321 51.6219 77.4321 51.9231 77.1296C51.6822 77.4321 51.5617 77.7951 51.6822 78.158C52.2846 78.521 52.7063 78.037 52.9472 77.4321C52.887 78.037 52.9472 78.5815 53.6099 78.5815C54.5135 78.642 54.0918 77.7346 54.2725 77.1296C54.5737 76.2827 55.3569 75.9198 56.2605 75.4963C58.0075 74.6494 59.8147 73.742 61.14 72.2901C63.0677 70.1728 61.2605 68.4185 58.9111 69.5074C56.0798 70.8988 53.9111 73.621 51.8629 76.0407Z" fill="#F2B368"/>
<path d="M52.0437 61.2198C52.6461 60.0099 53.61 61.0383 53.9112 61.8852C54.2124 62.8531 54.0919 63.7 53.7305 64.6074C53.1883 66.0593 52.5859 67.3296 52.2847 68.842C52.1642 69.3864 51.8028 70.9593 51.1401 69.7494C51.6823 71.8062 49.5738 70.7778 50.2967 69.2049C50.2967 69.6284 49.875 69.7494 49.7546 70.0519C47.7064 68.2975 50.2967 63.216 51.7425 61.7642C51.7425 61.5222 51.622 61.7037 52.0437 61.2198Z" fill="#C17B3D"/>
<path d="M57.9474 49.5444C57.9474 49.7864 57.7667 49.9679 57.5257 49.9679C57.2847 49.9679 57.104 49.7864 57.104 49.5444C57.104 49.3025 57.2847 49.121 57.5257 49.121C57.7667 49.121 57.9474 49.3025 57.9474 49.5444Z" fill="#35302C"/>
<path d="M63.9112 48.5765C63.9112 48.8185 63.7305 49 63.4896 49C63.2486 49 63.0679 48.8185 63.0679 48.5765C63.0679 48.3346 63.2486 48.1531 63.4896 48.1531C63.7305 48.1531 63.9112 48.3346 63.9112 48.5765Z" fill="#35302C"/>
<path d="M57.5858 49.242C57.5858 49.363 57.5256 49.4235 57.4051 49.4235C57.2846 49.4235 57.2244 49.363 57.2244 49.242C57.2244 49.121 57.2846 49.0605 57.4051 49.0605C57.5256 49.0605 57.5858 49.1815 57.5858 49.242Z" fill="white"/>
<path d="M63.4896 48.3346C63.4896 48.4556 63.4294 48.516 63.3089 48.516C63.1884 48.516 63.1282 48.4556 63.1282 48.3346C63.1282 48.2136 63.1884 48.1531 63.3089 48.1531C63.4294 48.1531 63.4896 48.2136 63.4896 48.3346Z" fill="white"/>
<path d="M19.8149 94.0074C19.7546 94.1889 19.7546 94.3704 19.7546 94.4914C19.8751 94.4914 20.0558 94.4914 20.1763 94.4914C20.1763 94.3099 20.1763 94.1284 20.0558 94.0074C20.0558 93.9469 19.9354 93.9469 19.8149 94.0074C19.7546 94.1889 19.7546 94.3099 19.7546 94.4914C19.7546 94.7938 20.1763 94.7938 20.1763 94.4914C20.1763 94.3099 20.1763 94.1284 20.1161 94.0074C20.0558 93.8864 19.8751 93.8864 19.8149 94.0074Z" fill="#020100"/>
<path d="M20.5979 94.1284C20.5979 94.2494 20.5979 94.4309 20.4775 94.4914C20.5979 94.5519 20.7184 94.6123 20.7787 94.6728C20.8389 94.5518 20.9594 94.0679 20.7184 94.0074C20.4775 93.9469 20.4172 94.4309 20.4172 94.5518C20.357 94.7333 20.5979 94.9148 20.7184 94.7333C20.8992 94.5519 20.8992 94.3099 20.8389 94.0679C20.8389 93.8864 20.5979 93.9469 20.5979 94.1284Z" fill="#020100"/>
<path d="M21.2608 93.8864C21.2608 94.0074 21.2005 94.1284 21.2005 94.1889C21.321 94.2494 21.4415 94.3099 21.562 94.3704C21.6222 94.1889 21.6222 94.0074 21.5017 93.8259C21.4415 93.7654 21.3813 93.7654 21.321 93.8259C21.2005 93.9469 21.1403 94.1284 21.1403 94.3099C21.08 94.5519 21.4415 94.5518 21.5017 94.3704C21.562 94.1889 21.562 94.0679 21.562 93.8864C21.562 93.7049 21.2608 93.7049 21.2608 93.8864Z" fill="#020100"/>
<path d="M23.9113 93.0395C23.9113 93.1605 23.8511 93.2815 23.8511 93.4025C23.7909 93.6445 24.2126 93.7654 24.2126 93.5235C24.2126 93.342 24.2728 93.1605 24.2126 93.0395C24.1523 92.979 24.0318 92.9185 23.9716 93.0395C23.8511 93.1605 23.8511 93.342 23.8511 93.5235C23.9716 93.5235 24.0921 93.5235 24.2728 93.5235C24.2728 93.342 24.333 93.221 24.2728 93.0395C24.2126 92.7975 23.9113 92.858 23.9113 93.0395Z" fill="#020100"/>
<path d="M24.6342 93.221C24.6342 93.1605 24.6342 93.1 24.5739 93.0395C24.5739 93.1 24.5739 93.1605 24.5137 93.221C24.5137 93.2815 24.4535 93.342 24.5137 93.342C24.6342 93.463 24.7547 93.5235 24.8752 93.6444C24.8752 93.5235 24.9956 93.1 24.7547 93.0395C24.5739 92.979 24.4535 93.4025 24.3932 93.5235C24.333 93.7654 24.5739 93.8864 24.7547 93.8259C24.9956 93.7049 24.9956 93.2815 24.9354 93.0395C24.8752 92.979 24.8149 92.9185 24.6944 92.979C24.5739 92.979 24.5137 93.1 24.6342 93.221Z" fill="#020100"/>
<path d="M25.1162 92.858C25.1162 92.9185 25.1162 93.0395 25.1162 93.1C25.1162 93.1605 25.0559 93.221 25.1764 93.1C25.2969 93.1605 25.3571 93.221 25.4776 93.2815C25.4776 93.1 25.4776 92.9185 25.3571 92.7975C25.2969 92.737 25.2969 92.7975 25.2366 92.7975C25.1162 92.9185 25.0559 93.1 25.0559 93.2815C25.0559 93.463 25.2366 93.5235 25.3571 93.4025C25.5378 93.2815 25.4174 92.979 25.4174 92.7975C25.3571 92.6766 25.1162 92.6765 25.1162 92.858Z" fill="#020100"/>
<path d="M15.5378 75.9802C15.6583 75.9198 15.839 75.8593 15.8993 75.6778C15.9595 75.5568 15.7788 75.4358 15.7185 75.4963C15.5981 75.5568 15.4776 75.6778 15.4173 75.8593C15.4173 75.9198 15.4173 75.9802 15.5378 75.9802C15.6583 75.9198 15.7788 75.7988 15.8993 75.7383C15.839 75.6778 15.7788 75.6778 15.6583 75.6173C15.5981 75.6778 15.4776 75.7383 15.4173 75.7988C15.2969 75.8593 15.4173 76.0407 15.5378 75.9802Z" fill="black"/>
<path d="M16.2006 76.4037C16.321 76.4037 16.4415 76.1617 16.5018 76.0407C16.562 75.9198 16.321 75.8593 16.2608 75.9198C16.2006 76.0407 16.1403 76.1617 16.0801 76.2827C16.1403 76.4037 16.2006 76.4037 16.2006 76.4037C16.321 76.2827 16.3813 76.1617 16.4415 76.0407C16.3813 75.9803 16.321 75.9803 16.2006 75.9198C16.2006 75.9803 16.0801 76.1617 16.0801 76.1617C16.0801 76.2827 16.0801 76.4642 16.2006 76.4037Z" fill="black"/>
<path d="M16.9234 76.3432C17.1041 76.2827 17.2246 76.1012 17.2246 75.9197C17.2246 75.7988 17.0438 75.7383 16.9836 75.8593C16.9234 75.9802 16.8631 76.1012 16.8631 76.2222C16.8029 76.2827 16.8631 76.3432 16.9234 76.3432C17.0438 76.2222 17.1041 76.1012 17.1643 75.9802C17.1041 75.9802 17.0438 75.9197 16.9234 75.9197C16.9234 75.9197 16.8631 76.1012 16.8029 76.1012C16.7426 76.2222 16.7426 76.4037 16.9234 76.3432Z" fill="black"/>
<path d="M32.2246 71.5642C31.6222 68.2975 28.1282 66.7247 24.9355 66.5432C24.9355 66.6642 24.2126 68.7815 25.8391 70.2938C26.8029 70.4753 27.6463 70.8383 28.6102 71.6852C29.2728 72.2296 29.9957 73.6815 30.8993 73.742C32.0439 73.8025 32.4054 72.4716 32.2246 71.5642Z" fill="#A35928"/>
<path d="M49.333 69.2049C49.1523 69.4469 49.092 69.6284 49.092 69.9309C49.092 69.9914 49.092 70.1123 49.092 70.1728C49.092 70.2938 49.1523 70.4753 49.1523 70.5963C49.5137 70.5963 49.8149 70.5963 50.1764 70.5963C50.1764 70.2333 50.1764 69.6284 49.8752 69.3864C49.7547 69.2654 49.574 69.2654 49.4535 69.3864C49.1523 69.6284 49.1523 70.2333 49.1523 70.5963C49.1523 71.2617 50.1161 71.2617 50.1764 70.5963C50.1764 70.4148 50.1161 70.2938 50.1161 70.1728C50.1161 70.1123 50.1161 70.0518 50.1161 69.9914V69.9309C50.1161 69.8099 50.1161 69.8099 50.0559 69.9914C50.4776 69.4469 49.7547 68.6605 49.333 69.2049Z" fill="black"/>
<path d="M50.2366 70.2938C50.1763 70.5358 50.1161 70.7778 50.1763 71.0198C50.2366 71.2617 50.2968 71.5037 50.4173 71.6852C50.839 72.2901 51.8028 71.9272 51.6221 71.2012C51.5619 71.0198 51.5016 70.8383 51.3811 70.6568C51.2607 70.4753 51.0799 70.1123 50.839 70.0518C50.7185 70.0518 50.4775 70.0519 50.4173 70.1728C50.1161 70.5358 50.2968 71.2617 50.4775 71.6852C50.839 71.4432 51.1402 71.1407 51.5016 70.8988C51.4414 70.8383 51.3811 70.6568 51.3209 70.5358C51.2607 70.4148 51.2004 70.2938 51.0799 70.1728C50.839 69.9309 50.2968 69.8704 50.2366 70.2938Z" fill="black"/>
<path d="M51.1403 69.6284C51.0801 69.9309 51.0801 70.2333 51.0801 70.5963C51.562 70.5963 52.1042 70.5963 52.5861 70.5963C52.5861 70.1123 52.4054 69.6284 52.0439 69.3864C51.7427 69.1444 51.3813 69.3259 51.1403 69.6284C50.9596 69.9309 50.9596 70.4148 51.0801 70.7778C51.3813 71.6852 52.7066 71.3222 52.5258 70.3543C52.4656 70.0518 52.3451 69.7494 52.1644 69.4469C51.9234 69.0839 51.2608 69.1444 51.1403 69.6284Z" fill="black"/>
<path d="M50.7788 76.9481C50.7186 77.0691 50.6583 77.1901 50.5981 77.3716C50.5378 77.5531 50.5378 77.7346 50.5378 77.916C50.5378 78.4 51.321 78.521 51.4415 78.037C51.5017 77.6741 51.6222 77.2506 51.3812 76.9481C51.321 76.8877 51.2005 76.8272 51.1403 76.8877C50.7788 77.0691 50.6583 77.4926 50.5981 77.8556C50.8993 77.9161 51.2005 77.9161 51.5017 77.9765C51.5017 77.8556 51.5017 77.7951 51.5017 77.6741C51.5619 77.5531 51.6222 77.4321 51.6824 77.3111C51.8029 76.6457 50.8993 76.4037 50.7788 76.9481Z" fill="black"/>
<path d="M51.6222 77.9161C51.321 78.2185 51.321 78.763 51.321 79.1864C51.321 79.4284 51.5018 79.6704 51.803 79.7309C52.0439 79.7309 52.3451 79.6099 52.4054 79.3679C52.4656 79.005 52.5259 78.4 52.2247 78.158C52.1042 78.0371 51.9837 78.037 51.8632 78.0975C51.562 78.279 51.4415 78.763 51.3813 79.0654C51.7427 79.1259 52.0439 79.1864 52.4054 79.1864C52.4054 79.0654 52.4054 78.884 52.4054 78.763V78.7025C52.4054 78.5815 52.4656 78.521 52.3451 78.642C52.8873 78.158 52.1042 77.3716 51.6222 77.9161Z" fill="black"/>
<path d="M52.8871 78.2185C52.7666 78.4 52.7666 78.5815 52.6461 78.763C52.5859 78.9445 52.5256 79.1259 52.5256 79.3074C52.5256 79.9728 53.4293 80.0333 53.61 79.4284C53.7305 79.1259 53.7907 78.5815 53.61 78.3395C53.5497 78.2185 53.369 78.158 53.2485 78.2185C52.8871 78.3395 52.6461 78.8235 52.5256 79.1864C52.8871 79.2469 53.2485 79.3074 53.61 79.3074C53.61 79.3074 53.6702 79.1864 53.6702 79.1259C53.7305 79.0049 53.7305 78.884 53.7907 78.763C54.2124 78.158 53.2485 77.6136 52.8871 78.2185Z" fill="black"/>
<path d="M63.1884 93.8864C63.1282 94.1284 63.1282 94.3704 63.1282 94.6124C63.4896 94.5519 63.8511 94.4914 64.2125 94.4914C64.1523 94.1889 64.0318 93.8259 63.7908 93.6445C63.6703 93.584 63.5499 93.584 63.4294 93.7049C63.1884 93.9469 63.1282 94.3704 63.1884 94.6728C63.1884 95.3988 64.333 95.3383 64.2727 94.6728C64.2727 94.3704 64.1523 94.1284 64.0318 93.8259C63.7908 93.463 63.3089 93.584 63.1884 93.8864Z" fill="black"/>
<path d="M63.7305 94.7333C63.7305 95.1568 64.0317 95.7012 64.4534 95.8222C64.875 95.8827 65.357 95.4593 65.0558 95.0358C64.9353 94.8543 64.7546 94.6728 64.5738 94.5518C64.2726 94.2494 63.7305 94.5518 63.8509 94.9753C63.9112 95.2173 63.9714 95.3988 64.0919 95.5802C64.2726 95.3383 64.5136 95.0358 64.6943 94.7938C64.8148 94.7938 64.875 94.9753 64.7546 94.7938C64.6943 94.7333 64.7546 94.8543 64.7546 94.7938C64.875 94.0074 63.7305 94.0074 63.7305 94.7333Z" fill="black"/>
<path d="M64.5137 94.4309C64.5137 94.6728 64.4535 94.9148 64.574 95.1568C64.7547 95.8222 65.839 95.7012 65.7788 94.9753C65.7788 94.7333 65.7185 94.4914 65.5378 94.3099C65.2366 93.9469 64.7547 94.0074 64.574 94.4309C64.5137 94.6728 64.4535 94.9148 64.5137 95.1568C64.8752 94.9753 65.2969 94.8543 65.6583 94.6728C65.5981 94.6123 65.6583 94.5518 65.5981 94.4309C65.5981 93.6444 64.574 93.7049 64.5137 94.4309Z" fill="black"/>
<path d="M66.9835 96.6691C66.9233 97.0321 67.0438 97.4556 67.4052 97.637C67.7667 97.8185 68.2486 97.5161 68.0679 97.0926C67.9474 96.7901 67.6462 96.2457 67.2245 96.4272C66.8028 96.6086 67.0438 97.2136 67.2245 97.4556C67.4052 97.2136 67.586 96.9716 67.7667 96.7901C67.7667 96.8506 67.8269 96.7901 67.7667 96.7901C67.7667 96.7296 67.7667 96.6691 67.7064 96.6087C67.7064 96.1247 67.0438 96.3062 66.9835 96.6691Z" fill="black"/>
<path d="M67.8872 97.1531C67.8872 97.2741 67.8872 97.3951 67.9475 97.5161C68.0077 97.637 68.0679 97.758 68.1282 97.8185C68.3089 97.758 68.5499 97.6975 68.7306 97.637C68.6703 97.3951 68.6101 97.0321 68.3089 96.9111C68.1884 96.8506 68.0679 96.8506 68.0077 96.9716C67.8872 97.2136 68.0077 97.5161 68.0679 97.758C68.1884 98.1815 68.7908 98 68.6703 97.5765C68.6101 97.3951 68.4896 97.2741 68.4896 97.0321C68.5499 96.7296 67.8872 96.7296 67.8872 97.1531Z" fill="black"/>
<path d="M68.6704 97.0321C68.6704 97.2136 68.6704 97.3346 68.6704 97.5161C68.6704 98.0605 69.5138 98.0605 69.5138 97.5161C69.5138 97.3346 69.5138 96.9716 69.3331 96.8506C69.1523 96.7296 69.0319 96.7296 68.8511 96.8506C68.6704 96.9716 68.6704 97.2741 68.6704 97.5161C68.6704 98.0605 69.5138 98.0605 69.5138 97.5161C69.5138 97.3346 69.5138 97.2136 69.5138 97.0321C69.4535 96.4877 68.6704 96.4877 68.6704 97.0321Z" fill="black"/>
<path d="M17.2246 68.358C17.2246 68.358 18.068 68.479 19.9355 68.1161C21.7427 67.7531 22.7065 66.9062 22.7065 66.9062V67.9346C22.7065 67.9346 21.3812 68.6605 20.1162 68.7815C18.8511 68.9025 17.4053 68.9025 17.4053 68.9025L17.2246 68.358Z" fill="#F90000"/>
<path opacity="0.6" d="M57.345 47.6086C57.8269 47.4272 58.1281 47.6086 58.61 47.7901C58.9715 47.9111 59.6341 48.0321 59.8149 47.6691C60.5377 46.3988 57.6462 45.8543 57.345 47.6086Z" fill="white"/>
<path opacity="0.6" d="M61.5619 46.2778C61.2004 46.3988 61.08 47.0642 61.3812 47.3062C61.8029 47.6086 62.4053 47.2457 62.7065 46.9432C62.8872 46.7617 63.0077 46.5802 63.1884 46.3988C63.2486 46.3383 63.3691 46.3988 63.4294 46.2778C63.7306 45.6728 62.2245 45.7938 61.5619 46.2778Z" fill="white"/>
<path d="M15.6584 60.7358C15.2969 60.9173 14.3331 60.8568 14.3933 61.5222C14.4536 61.9457 14.9957 61.8852 15.2367 61.7037C15.6584 61.5222 15.8391 61.0988 15.6584 60.7358Z" fill="black"/>
<path d="M18.6101 60.2519C18.7908 60.3728 18.9716 60.6148 19.1523 60.7963C19.3932 60.9778 19.8752 61.0383 20.1161 60.7963C20.2969 60.6148 20.2969 60.3123 20.1161 60.1309C19.6944 59.8889 19.1523 60.1914 18.6101 60.2519Z" fill="black"/>
<path d="M14.9957 61.2802C14.9957 61.3407 14.9355 61.4617 14.815 61.4617C14.7548 61.4617 14.6343 61.4012 14.6343 61.2802C14.6343 61.2198 14.6945 61.0988 14.815 61.0988C14.9355 61.0988 14.9957 61.1593 14.9957 61.2802Z" fill="white"/>
<path d="M19.5738 60.3728C19.5738 60.4938 19.5136 60.5543 19.3931 60.5543C19.2726 60.5543 19.2124 60.4938 19.2124 60.3728C19.2124 60.2518 19.2726 60.1914 19.3931 60.1914C19.4534 60.1914 19.5738 60.2518 19.5738 60.3728Z" fill="white"/>
<path d="M17.2848 62.5506C17.2848 62.6111 17.2245 62.7321 17.1041 62.7321C17.0438 62.7321 16.9233 62.6716 16.9233 62.5506C16.9233 62.4901 16.9836 62.3691 17.1041 62.3691C17.2245 62.3691 17.2848 62.4901 17.2848 62.5506Z" fill="white"/>
<path d="M41.0799 19.237C41.0799 19.6 39.9956 20.4469 39.1522 20.4469C38.3088 20.4469 37.345 19.237 37.345 19.237C37.345 19.237 38.3088 19.842 39.1522 19.842C40.0558 19.842 41.0799 19.237 41.0799 19.237Z" fill="#E55B27"/>
<g opacity="0.6">
<path d="M49.6343 17.4827C49.6343 17.4827 49.8752 15.0025 50.4777 15.5469C51.0801 16.1519 50.5981 19.479 49.9957 19.963C49.3933 20.4469 50.4776 18.9951 50.3572 18.0272C50.2367 17.1198 49.6343 17.4827 49.6343 17.4827Z" fill="#E55B27"/>
</g>
<g opacity="0.6">
<path d="M28.9715 18.0877C28.9715 18.0877 28.4293 15.6679 27.8872 16.3333C27.4052 16.9988 28.3088 20.2654 28.9715 20.6284C29.6341 20.9914 28.3691 19.721 28.3691 18.8136C28.3691 17.8457 28.9715 18.0877 28.9715 18.0877Z" fill="#E55B27"/>
</g>
<path d="M44.5137 28.4321C44.2125 28.5531 42.345 29.4605 41.3812 29.4605C38.8511 29.521 38.1884 29.5815 37.4655 29.4605C36.7426 29.3395 35.1764 28.7951 35.1764 28.7951L33.6101 32.3037C33.6101 32.3037 39.9354 33.0296 42.1041 31.6988C44.2125 30.4284 44.5137 28.4321 44.5137 28.4321Z" fill="#F88C4C"/>
<path d="M50.3571 9.25556C49.9957 7.92469 47.8873 5.20247 46.9234 3.8716C46.8029 3.62963 46.6222 3.38765 46.4415 3.14568C46.3812 3.02469 46.3812 3.02469 46.321 3.02469C45.1162 1.63333 44.6342 1.51235 43.0077 1.81481C42.9475 1.14938 43.7306 0.302469 43.4897 0.241975C42.7668 0.241975 39.2126 0.725926 36.5017 1.14938C36.8632 0.846914 37.1041 0.483951 37.3451 0.181481C36.6824 0.423457 36.1403 0.907407 35.5379 1.27037C35.4776 1.27037 35.4174 1.27037 35.3571 1.27037C35.7788 0.907407 36.08 0.423457 36.2608 0C35.6583 0.241975 34.9957 0.846914 34.5138 1.45185C34.2126 1.51235 34.3933 1.51235 34.2126 1.51235C34.6342 1.14938 34.9355 0.665432 35.1162 0.241975C33.5499 1.27037 31.9836 2.54074 30.5981 3.8716C29.0318 5.32346 27.2848 7.19877 26.9836 9.37654L28.4294 15.1235C28.4294 15.1235 28.7306 15.4259 29.2728 16.6358C29.8752 17.8457 29.8752 20.2654 29.9355 19.721C29.9957 19.1765 30.7788 11.3123 30.7788 11.3123C30.7788 11.3123 30.4174 11.1914 31.5017 11.4333C32.5861 11.6753 31.3812 10.2235 31.3812 10.2235L33.9716 10.3444L32.5258 8.52963H32.8873C34.0318 9.43704 35.5379 9.98148 36.7427 10.042C36.8632 9.37654 36.4415 8.8321 36.5017 8.16667C38.2487 8.71111 39.0921 10.163 41.321 9.92099C41.2608 9.49753 41.08 9.13457 40.7186 8.7716C42.1644 8.7716 45.3571 10.4049 45.4174 7.62222C45.3571 7.62222 45.2969 7.56173 45.2367 7.56173L46.5017 7.8037L45.4776 9.73951L47.4053 9.37654C47.4053 9.37654 47.4053 9.37654 48.2487 11.8568C49.0921 14.337 48.3692 18.8741 48.3692 18.8741C48.3692 18.8741 50.8391 10.8889 50.3571 9.25556Z" fill="#6D3812"/>
<path d="M50.1162 8.59013C49.6342 8.22716 49.0921 7.8642 48.6101 7.56173C46.2005 6.17037 43.3089 5.50494 40.4776 4.71852C37.8873 4.9605 35.2969 5.26297 32.9475 6.41235C30.8993 7.44074 29.0921 8.59013 26.9836 9.37655L28.4294 15.1235C28.4294 15.1235 28.7306 15.4259 29.2728 16.6358C29.8752 17.8457 29.8752 20.2654 29.9355 19.721C29.9957 19.1765 30.7788 11.3123 30.7788 11.3123C30.7788 11.3123 30.4174 11.1914 31.5017 11.4333C32.5861 11.6753 31.3812 10.2235 31.3812 10.2235L33.9716 10.3444L32.5258 8.52963H32.8873C34.0318 9.43704 35.5379 9.98148 36.7427 10.042C36.8632 9.37655 36.4415 8.8321 36.5017 8.16667C38.2487 8.71111 39.0921 10.163 41.321 9.92099C41.2608 9.49753 41.08 9.13457 40.7186 8.77161C42.1644 8.77161 45.3571 10.4049 45.4174 7.62222C45.3571 7.62222 45.2969 7.56173 45.2367 7.56173L46.5017 7.80371L45.4776 9.73951L47.4053 9.37655C47.4053 9.37655 47.4053 9.37655 48.2487 11.8568C49.0921 14.337 48.3692 18.8741 48.3692 18.8741C48.3692 18.8741 50.8391 10.8889 50.3571 9.19506C50.2969 9.07408 50.1764 8.8321 50.1162 8.59013Z" fill="#592C11"/>
<path d="M24.9956 65.5148C24.9956 65.5148 25.4173 66.3012 25.1763 66.8457C24.9353 67.3901 24.8149 67.0877 24.7546 67.7531C24.6944 68.4185 25.0558 69.5074 25.0558 69.5074C25.0558 69.5074 24.092 67.8136 24.4534 67.3901C25.1763 66.4827 24.9956 65.5148 24.9956 65.5148Z" fill="#F88C4C"/>
<path d="M25.5981 63.579C25.5981 63.579 26.0801 63.7 26.9234 64.7889C27.8873 66.1198 27.8873 66.7852 27.8873 66.7852C27.8873 66.7852 27.4054 65.8778 27.0439 65.3333C26.7427 64.9099 25.5981 63.579 25.5981 63.579Z" fill="#F88C4C"/>
<path d="M26.4414 63.0346C26.4414 63.0346 26.8029 63.579 27.4655 64.1235C28.1282 64.6679 29.5739 66.8457 29.5739 66.8457C29.5739 66.8457 29.333 65.6358 28.4294 64.7284C27.5257 63.7605 26.4414 63.0346 26.4414 63.0346Z" fill="#F88C4C"/>
<path d="M56.7426 70.7173C57.7065 69.8099 58.6703 68.9025 59.7547 68.1161L58.7908 66.4222C58.7908 66.4222 57.8269 66.6642 57.6462 67.6926C57.5257 68.4185 58.1884 69.3864 57.4053 69.3864C56.6221 69.3864 56.1402 68.5395 56.6221 67.8136C57.827 65.9988 58.2486 65.5753 57.4053 65.2728C57.7065 64.7889 56.9836 64.6074 56.7426 64.7284C56.5016 64.3049 55.598 63.7 52.7065 66.6037C51.7426 67.5716 51.6824 70.2938 51.6824 70.2938C51.6824 70.2938 52.4053 72.1086 53.1884 73.863C53.5498 73.5 53.9715 73.137 54.3932 72.8346C55.1161 72.0482 55.8992 71.3222 56.7426 70.7173Z" fill="#FFC489"/>
<path d="M79.4533 71.2617C78.128 70.6568 76.7425 70.1123 72.4051 71.6852C70.3569 72.4111 65.5377 73.0765 62.4051 73.137C62.2847 73.137 62.2244 73.1975 62.1039 73.1975C61.1401 73.5 60.2365 73.984 59.3931 74.4679C58.128 75.3148 57.5859 75.4358 56.381 76.4037C56.2606 76.4642 62.7666 79.1259 67.4051 79.7914C75.2365 80.9407 79.6943 80.6988 81.0196 77.6136C82.2847 74.4679 80.8991 71.9272 79.4533 71.2617Z" fill="#FFC489"/>
<path d="M56.7427 70.7173C57.4053 70.0519 58.1282 69.3864 58.8511 68.7815C58.3692 68.358 58.068 67.7531 57.8873 67.0877C57.7668 67.2691 57.6463 67.5111 57.586 67.7531C57.4656 68.479 58.1885 69.5679 57.4053 69.6284C56.6222 69.6284 55.2969 68.6605 55.5379 67.8741C55.6583 67.3296 56.7427 66.0593 56.9836 65.8173C56.1403 66.3617 55.4776 67.3296 54.9957 68.116C54.5138 68.9025 53.6704 68.1161 54.2126 67.3901C54.574 66.8457 55.2969 66.0593 55.7788 65.5753C55.1162 66.0593 53.9716 66.9667 53.6101 67.7531C53.2487 68.479 52.1644 67.9951 52.2848 67.3296C51.7427 68.721 51.7427 70.3543 51.7427 70.3543C51.7427 70.3543 52.4656 72.1691 53.2487 73.9839C53.6101 73.5605 54.0921 73.258 54.5138 72.8951C55.1162 72.0481 55.8993 71.3222 56.7427 70.7173Z" fill="#FDB177"/>
<path d="M81.3812 74.5889C80.2366 77.0691 75.9595 78.158 73.9716 78.3395C63.4896 79.1259 57.9475 75.4963 57.9475 75.4963C56.7426 76.2827 57.5258 75.5568 56.3812 76.4642C56.2607 76.5247 60.0559 78.763 67.586 80.2148C75.2969 81.7272 79.6342 80.9407 80.8993 77.7951C81.3812 76.6457 81.5017 75.5568 81.3812 74.5889Z" fill="#FDB177"/>
<path d="M53.068 73.9839C53.2487 73.8025 53.4294 73.621 53.6101 73.5C53.5499 73.379 53.5499 73.3185 53.4897 73.1975C52.8873 71.5037 51.7427 70.2333 51.7427 70.2333C51.7427 70.2333 52.586 72.5321 53.068 73.9839Z" fill="#F88C4C"/>
<path d="M57.9475 69.3259C57.9475 69.3864 57.9475 69.5074 57.9475 69.5679C58.0679 69.4469 58.1884 69.3259 58.3692 69.2049C58.3692 69.084 58.3692 69.0235 58.3089 68.963C57.7065 68.116 57.9475 67.1481 57.9475 67.1481C57.9475 67.1481 57.4655 67.8741 57.6463 68.4185C57.827 68.963 57.9475 68.721 57.9475 69.3259Z" fill="#F88C4C"/>
<path d="M57.4654 65.2123C57.4654 65.2123 56.9233 65.2728 56.0196 66.3617C54.9353 67.5716 54.9353 68.237 54.9353 68.237C54.9353 68.237 55.4775 67.3901 55.8389 66.8457C56.2606 66.4222 57.4654 65.2123 57.4654 65.2123Z" fill="#F88C4C"/>
<path d="M56.622 64.6074C56.622 64.6074 56.2003 65.0914 55.5377 65.5753C54.875 66.0593 53.2485 68.116 53.2485 68.116C53.2485 68.116 53.61 66.9667 54.5738 66.0593C55.5377 65.2123 56.622 64.6074 56.622 64.6074Z" fill="#F88C4C"/>
</svg>
