<svg width="28" height="28" viewBox="0 0 28 28" fill="none" xmlns="http://www.w3.org/2000/svg">
<path d="M24.8909 11.8942L22.8784 10.6517C23.207 10.3265 23.4679 9.93956 23.6461 9.51304C23.8243 9.08652 23.9163 8.62892 23.9167 8.16667C24.0714 8.16667 24.2198 8.10521 24.3292 7.99581C24.4386 7.88642 24.5 7.73804 24.5 7.58333V6.41667C24.5 5.3337 24.0698 4.29509 23.304 3.52931C22.5383 2.76354 21.4997 2.33333 20.4167 2.33333C19.3337 2.33333 18.2951 2.76354 17.5293 3.52931C16.7636 4.29509 16.3334 5.3337 16.3334 6.41667V6.56833C15.6487 6.09157 14.8344 5.83599 14 5.83599C13.1657 5.83599 12.3514 6.09157 11.6667 6.56833V6.41667C11.6667 5.3337 11.2365 4.29509 10.4707 3.52931C9.70493 2.76354 8.66632 2.33333 7.58335 2.33333C6.50039 2.33333 5.46178 2.76354 4.696 3.52931C3.93023 4.29509 3.50002 5.3337 3.50002 6.41667V7.58333C3.50002 7.73804 3.56148 7.88642 3.67088 7.99581C3.78027 8.10521 3.92865 8.16667 4.08335 8.16667C4.08375 8.62892 4.17571 9.08652 4.35393 9.51304C4.53215 9.93956 4.79309 10.3265 5.12169 10.6517L3.10919 11.8942C2.51449 12.2642 2.024 12.7799 1.6841 13.3923C1.3442 14.0047 1.16612 14.6937 1.16669 15.3942V21.5833C1.16669 21.738 1.22815 21.8864 1.33754 21.9958C1.44694 22.1052 1.59531 22.1667 1.75002 22.1667H7.58335V25.0833C7.58335 25.238 7.64481 25.3864 7.75421 25.4958C7.86361 25.6052 8.01198 25.6667 8.16669 25.6667H19.8334C19.9881 25.6667 20.1364 25.6052 20.2458 25.4958C20.3552 25.3864 20.4167 25.238 20.4167 25.0833V22.1667H26.25C26.4047 22.1667 26.5531 22.1052 26.6625 21.9958C26.7719 21.8864 26.8334 21.738 26.8334 21.5833V15.3708C26.83 14.6744 26.65 13.9901 26.3103 13.3821C25.9706 12.7741 25.4822 12.2621 24.8909 11.8942ZM9.52585 15.3942C9.12409 15.644 8.7688 15.9618 8.47585 16.3333L9.85252 10.8208L9.91669 10.7625V11.0833C9.91669 11.238 9.97815 11.3864 10.0875 11.4958C10.1969 11.6052 10.3453 11.6667 10.5 11.6667C10.5004 12.1289 10.5924 12.5865 10.7706 13.013C10.9488 13.4396 11.2098 13.8265 11.5384 14.1517L9.52585 15.3942ZM7.58335 15.0967L6.69669 11.55C7.27021 11.7013 7.87317 11.7013 8.44669 11.55L7.58335 15.0967ZM16.3334 11.5967V11.6667C16.3334 12.2855 16.0875 12.879 15.6499 13.3166C15.2124 13.7542 14.6189 14 14 14C13.3812 14 12.7877 13.7542 12.3501 13.3166C11.9125 12.879 11.6667 12.2855 11.6667 11.6667V11.5033C12.1937 11.3585 12.6575 11.0425 12.985 10.605C13.5509 11.0833 14.5834 11.4858 16.3334 11.62V11.5967ZM14 19.18L13.58 17.5H14.42L14 19.18ZM14.7059 16.3333C14.6651 16.3306 14.6241 16.3306 14.5834 16.3333H13.4167C13.3759 16.3306 13.335 16.3306 13.2942 16.3333L12.9559 14.9858C13.6361 15.1958 14.3639 15.1958 15.0442 14.9858L14.7059 16.3333ZM16.4559 14.1283C17.116 13.4783 17.4915 12.5931 17.5 11.6667C17.6547 11.6667 17.8031 11.6052 17.9125 11.4958C18.0219 11.3864 18.0834 11.238 18.0834 11.0833V10.7683L18.1475 10.8267L19.5242 16.3333C19.2317 15.9597 18.8764 15.6399 18.4742 15.3883L16.4559 14.1283ZM20.4167 15.0967L19.53 11.55C20.1035 11.7013 20.7065 11.7013 21.28 11.55L20.4167 15.0967ZM22.75 8.16667C22.75 8.7855 22.5042 9.379 22.0666 9.81658C21.629 10.2542 21.0355 10.5 20.4167 10.5C19.7978 10.5 19.2044 10.2542 18.7668 9.81658C18.3292 9.379 18.0834 8.7855 18.0834 8.16667V8.03833C19.041 7.8165 19.9426 7.39947 20.7317 6.81333C20.9602 7.15222 21.2585 7.43838 21.6066 7.65266C21.9547 7.86694 22.3445 8.0044 22.75 8.05583V8.16667ZM17.5 6.41667C17.5 5.64312 17.8073 4.90125 18.3543 4.35427C18.9013 3.80729 19.6431 3.5 20.4167 3.5C21.1902 3.5 21.9321 3.80729 22.4791 4.35427C23.0261 4.90125 23.3334 5.64312 23.3334 6.41667V7C21.6942 6.83667 21.5834 5.9675 21.5834 5.83333C21.5805 5.72017 21.5448 5.61028 21.4806 5.51706C21.4164 5.42383 21.3264 5.35131 21.2217 5.30833C21.1155 5.26366 20.9984 5.25146 20.8852 5.27326C20.7721 5.29506 20.6679 5.34989 20.5859 5.43083C19.7248 6.22517 18.6537 6.75562 17.5 6.95917V6.41667ZM14 7C14.7736 7 15.5154 7.30729 16.0624 7.85427C16.6094 8.40125 16.9167 9.14312 16.9167 9.91667V10.5C14.2042 10.4067 13.4692 9.63083 13.4167 9.33333C13.4167 9.17862 13.3552 9.03025 13.2458 8.92085C13.1364 8.81146 12.9881 8.75 12.8334 8.75C12.6786 8.75 12.5303 8.81146 12.4209 8.92085C12.3115 9.03025 12.25 9.17862 12.25 9.33333C12.25 9.37417 12.25 10.2317 11.0834 10.4475V9.91667C11.0834 9.14312 11.3906 8.40125 11.9376 7.85427C12.4846 7.30729 13.2265 7 14 7ZM4.66669 6.41667C4.66669 5.64312 4.97398 4.90125 5.52096 4.35427C6.06794 3.80729 6.80981 3.5 7.58335 3.5C8.3569 3.5 9.09877 3.80729 9.64575 4.35427C10.1927 4.90125 10.5 5.64312 10.5 6.41667V7C8.86085 6.83667 8.75002 5.9675 8.75002 5.83333C8.74718 5.72017 8.71147 5.61028 8.64725 5.51706C8.58303 5.42383 8.49308 5.35131 8.38835 5.30833C8.28212 5.26366 8.16504 5.25146 8.05188 5.27326C7.93872 5.29506 7.83455 5.34989 7.75252 5.43083C6.89142 6.22517 5.82039 6.75562 4.66669 6.95917V6.41667ZM7.89835 6.81333C8.1269 7.15222 8.42519 7.43838 8.77327 7.65266C9.12135 7.86694 9.51119 8.0044 9.91669 8.05583V8.16667C9.91669 8.7855 9.67086 9.379 9.23327 9.81658C8.79569 10.2542 8.20219 10.5 7.58335 10.5C6.96452 10.5 6.37102 10.2542 5.93344 9.81658C5.49585 9.379 5.25002 8.7855 5.25002 8.16667V8.03833C6.20766 7.8165 7.10923 7.39947 7.89835 6.81333ZM2.33336 15.3708C2.33321 14.8725 2.46075 14.3825 2.70379 13.9475C2.94683 13.5124 3.29727 13.1469 3.72169 12.8858L5.54752 11.76L7.00002 17.5933V21H2.33336V15.3708ZM8.75002 18.8708C8.74988 18.3725 8.87741 17.8825 9.12045 17.4475C9.36349 17.0124 9.71393 16.6469 10.1384 16.3858L10.5 16.1642V19.4133C10.2776 19.5417 10.1038 19.74 10.0055 19.9772C9.90721 20.2145 9.88997 20.4776 9.95644 20.7257C10.0229 20.9737 10.1694 21.1929 10.3731 21.3493C10.5769 21.5056 10.8265 21.5904 11.0834 21.5904C11.3402 21.5904 11.5898 21.5056 11.7936 21.3493C11.9973 21.1929 12.1438 20.9737 12.2103 20.7257C12.2767 20.4776 12.2595 20.2145 12.1612 19.9772C12.0629 19.74 11.8891 19.5417 11.6667 19.4133V15.4467L11.8359 15.3417L13.4167 21.6533V24.5H8.75002V18.8708ZM19.25 24.5H14.5834V21.6533L16.1642 15.3417L16.3334 15.4467V18.7717C15.993 18.892 15.6981 19.1147 15.4892 19.4092C15.2804 19.7037 15.1677 20.0556 15.1667 20.4167V22.1667C15.1667 22.3214 15.2281 22.4697 15.3375 22.5791C15.4469 22.6885 15.5953 22.75 15.75 22.75C15.9047 22.75 16.0531 22.6885 16.1625 22.5791C16.2719 22.4697 16.3334 22.3214 16.3334 22.1667V20.4167C16.3334 20.262 16.3948 20.1136 16.5042 20.0042C16.6136 19.8948 16.762 19.8333 16.9167 19.8333C17.0714 19.8333 17.2198 19.8948 17.3292 20.0042C17.4386 20.1136 17.5 20.262 17.5 20.4167V22.1667C17.5 22.3214 17.5615 22.4697 17.6709 22.5791C17.7803 22.6885 17.9286 22.75 18.0834 22.75C18.2381 22.75 18.3864 22.6885 18.4958 22.5791C18.6052 22.4697 18.6667 22.3214 18.6667 22.1667V20.4167C18.6657 20.0556 18.553 19.7037 18.3441 19.4092C18.1353 19.1147 17.8404 18.892 17.5 18.7717V16.1642L17.8617 16.3858C18.2861 16.6469 18.6365 17.0124 18.8796 17.4475C19.1226 17.8825 19.2502 18.3725 19.25 18.8708V24.5ZM25.6667 21H21V17.57L22.4525 11.7367L24.2784 12.8625C24.7062 13.1257 25.0588 13.4949 25.302 13.9343C25.5452 14.3738 25.6708 14.8686 25.6667 15.3708V21Z" fill="black"/>
</svg>
