<svg width="104" height="104" viewBox="0 0 104 104" fill="none" xmlns="http://www.w3.org/2000/svg">
<g clip-path="url(#clip0_128_2)">
<path d="M73.3281 27.625C73.3281 12.5038 61.0275 0 45.9062 0C30.785 0 18.4844 12.5038 18.4844 27.625C18.4844 42.7462 30.785 55.0469 45.9062 55.0469C61.0275 55.0469 73.3281 42.7462 73.3281 27.625ZM0 100.953C0 102.637 1.36277 104 3.04688 104H15.4375C17.1216 104 18.4844 102.637 18.4844 100.953V70.2812L0 82.4688V100.953ZM24.5781 100.953C24.5781 102.637 25.9409 104 27.625 104H39.8125C41.4966 104 42.8594 102.637 42.8594 100.953V70.2812L24.5781 58.0938V100.953ZM48.9531 100.953C48.9531 102.637 50.3159 104 52 104H64.1875C65.8716 104 67.2344 102.637 67.2344 100.953V70.2812L48.9531 82.4688V100.953ZM73.3281 58.0938V100.953C73.3281 102.637 74.6909 104 76.375 104H88.7656C90.4497 104 91.8125 102.637 91.8125 100.953V45.9062L73.3281 58.0938Z" fill="url(#paint0_linear_128_2)"/>
<path d="M45.9063 36.7656C44.2252 36.7656 42.8594 35.3998 42.8594 33.7188C42.8594 32.0346 41.4967 30.6719 39.8125 30.6719C38.1284 30.6719 36.7657 32.0346 36.7657 33.7188C36.7657 38.7591 40.866 42.8594 45.9063 42.8594C50.9466 42.8594 55.0469 38.7591 55.0469 33.7188C55.0469 28.6784 50.9466 24.5781 45.9063 24.5781C44.2252 24.5781 42.8594 23.2123 42.8594 21.5313C42.8594 19.8502 44.2252 18.4844 45.9063 18.4844C47.5874 18.4844 48.9532 19.8502 48.9532 21.5313C48.9532 23.2154 50.3159 24.5781 52 24.5781C53.6842 24.5781 55.0469 23.2154 55.0469 21.5313C55.0469 16.4909 50.9466 12.3906 45.9063 12.3906C40.866 12.3906 36.7657 16.4909 36.7657 21.5313C36.7657 26.5716 40.866 30.6719 45.9063 30.6719C47.5874 30.6719 48.9532 32.0377 48.9532 33.7188C48.9532 35.3998 47.5874 36.7656 45.9063 36.7656ZM100.953 30.6719H82.6719C80.9878 30.6719 79.625 32.0346 79.625 33.7188C79.625 35.4029 80.9878 36.7656 82.6719 36.7656H93.5978L52 78.1603L29.7792 55.9396C28.5891 54.7495 26.6608 54.7495 25.4707 55.9396L0.892582 80.3146C-0.297527 81.5047 -0.297527 83.433 0.892582 84.6231C2.08269 85.8132 4.01096 85.8132 5.20107 84.6231L27.625 62.4022L49.8459 84.6231C50.4411 85.2183 51.2207 85.5158 52 85.5158C52.7794 85.5158 53.5592 85.2183 54.1542 84.6231L97.9063 41.0741V52C97.9063 53.6841 99.2691 55.0469 100.953 55.0469C102.637 55.0469 104 53.6841 104 52V33.7188C104 32.0346 102.637 30.6719 100.953 30.6719Z" fill="url(#paint1_linear_128_2)"/>
</g>
<defs>
<linearGradient id="paint0_linear_128_2" x1="45.9062" y1="104" x2="45.9062" y2="0" gradientUnits="userSpaceOnUse">
<stop stop-color="#FD5900"/>
<stop offset="1" stop-color="#FFDE00"/>
</linearGradient>
<linearGradient id="paint1_linear_128_2" x1="52" y1="85.5156" x2="52" y2="12.3906" gradientUnits="userSpaceOnUse">
<stop stop-color="#FFE59A"/>
<stop offset="1" stop-color="#FFFFD5"/>
</linearGradient>
<clipPath id="clip0_128_2">
<rect width="104" height="104" fill="white"/>
</clipPath>
</defs>
</svg>
