<svg width="153" height="152" viewBox="0 0 153 152" fill="none" xmlns="http://www.w3.org/2000/svg">
<path d="M76.5 18.5547V39.7219C74.6594 40.4641 72.8188 41.325 71.0375 42.2453C60.0234 47.8266 52.1859 44.7688 40.4891 31.2609C40.4594 30.5781 40.4297 29.925 40.4297 29.2422V18.5547H76.5ZM69.6125 92.0906V76C69.6125 79.0281 68.7516 81.9375 67.2078 84.4313C66.4359 85.6781 65.4859 86.8359 64.4172 87.8156C63.3188 88.825 62.1016 89.6562 60.7359 90.3094C48.2078 96.3953 40.4297 108.834 40.4297 122.758V133.416H76.5V98.9781C72.7 98.9781 69.6125 95.8906 69.6125 92.0906Z" fill="#EAEAEA"/>
<path d="M76.5 18.5547H114.975H117.38V29.2125C117.38 37.0203 115.153 44.6203 110.997 51.1812C106.93 57.5641 101.17 62.6703 94.4016 65.9953C90.661 67.8359 88.2266 71.7547 88.2266 76C88.2266 80.2453 90.661 84.1938 94.4016 86.0047C101.2 89.3 106.93 94.4359 110.997 100.819C115.183 107.38 117.38 114.98 117.38 122.787V133.445H112.57H76.5V18.5547ZM60.736 61.6906C48.2079 55.6047 40.4297 43.1656 40.4297 29.2422V18.5547H35.6204V29.2125C35.6204 37.0203 37.8469 44.6203 42.0032 51.1812C46.0704 57.5641 51.8297 62.6703 58.5985 65.9953C62.3391 67.8359 64.7735 71.7547 64.7735 76C64.7735 80.2453 62.3391 84.1938 58.5985 86.0047C51.8 89.3 46.0704 94.4359 42.0032 100.819C37.8172 107.38 35.6204 114.98 35.6204 122.787V133.445H40.4297V122.787C40.4297 108.864 48.2079 96.425 60.736 90.3391C66.1391 87.7266 69.6125 82.0859 69.6125 76.0297C69.6125 69.9141 66.1391 64.3031 60.736 61.6906Z" fill="#DBDBDB"/>
<path d="M125.099 136.147C126.791 137.839 127.83 140.155 127.83 142.708C127.83 147.844 123.674 152 118.538 152H34.4626C31.9095 152 29.5938 150.961 27.9017 149.269C26.2095 147.577 25.1704 145.261 25.1704 142.708C25.1704 137.572 29.3267 133.416 34.4626 133.416H118.538C121.091 133.445 123.406 134.484 125.099 136.147ZM34.4626 18.5547H118.538C123.674 18.5547 127.83 14.3984 127.83 9.29219C127.83 6.73906 126.791 4.42344 125.099 2.73125C123.406 1.03906 121.091 0 118.538 0H34.4626C29.3563 0 25.2001 4.15625 25.2001 9.29219C25.2001 11.8453 26.2392 14.1609 27.9313 15.8531C29.5938 17.5156 31.9095 18.5547 34.4626 18.5547Z" fill="#9B1200"/>
<path d="M34.4626 133.445H76.5001V152H34.4626C31.9095 152 29.5938 150.961 27.9017 149.269C26.2095 147.577 25.1704 145.261 25.1704 142.708C25.2001 137.602 29.3563 133.445 34.4626 133.445ZM34.4626 0C29.3563 0 25.2001 4.15625 25.2001 9.29219C25.2001 11.8453 26.2392 14.1609 27.9313 15.8531C29.6235 17.5453 31.9392 18.5547 34.4923 18.5547H76.5001V0L34.4626 0Z" fill="#F22800"/>
<path d="M93.6596 107.944C92.3236 107.944 91.2549 109.013 91.2549 110.348C91.2549 111.684 92.3236 112.753 93.6596 112.753C94.9955 112.753 96.0643 111.684 96.0643 110.348C96.0346 109.042 94.9658 107.944 93.6596 107.944ZM64.5361 105.272C63.2002 105.272 62.1314 106.341 62.1314 107.677C62.1314 109.013 63.2002 110.081 64.5361 110.081C65.8721 110.081 66.9408 109.013 66.9408 107.677C66.9408 106.341 65.8721 105.272 64.5361 105.272ZM71.0377 42.2453C60.0236 47.8266 52.1861 44.7688 40.4893 31.2609C41.2018 44.3531 48.8314 55.9016 60.7361 61.6906C66.1393 64.3031 69.6127 69.9437 69.6127 76V92.0906C69.6127 95.8906 72.7002 98.9781 76.5002 98.9781C80.3002 98.9781 83.3877 95.8906 83.3877 92.0906V76.2969C83.3877 76.2078 83.3877 76.1187 83.3877 76C83.3877 69.9141 86.8611 64.3031 92.2643 61.6906C100.428 57.7125 106.544 51.0625 109.839 43.0766C97.6377 32.5375 83.4768 35.9219 71.0377 42.2453ZM86.5049 120.175C80.5971 115.633 72.3736 115.633 66.4955 120.175L49.3064 133.445H103.694L86.5049 120.175Z" fill="#99906B"/>
<path d="M66.4955 120.175L49.3064 133.445H76.5002V116.761C72.9674 116.761 69.4346 117.889 66.4955 120.175ZM71.0377 42.2453C60.0236 47.8266 52.1861 44.7688 40.4893 31.2609C41.2018 44.3531 48.8314 55.9016 60.7361 61.6906C66.1393 64.3031 69.6127 69.9437 69.6127 76V92.0906C69.6127 95.8906 72.7002 98.9781 76.5002 98.9781V39.7219C74.6596 40.4938 72.8189 41.325 71.0377 42.2453Z" fill="#C9BF8D"/>
</svg>
