<svg width="28" height="28" viewBox="0 0 28 28" fill="none" xmlns="http://www.w3.org/2000/svg">
<path d="M24.0668 18.6654C23.9761 18.556 23.8869 18.4466 23.7994 18.3411C22.5963 16.8859 21.8684 16.0076 21.8684 11.888C21.8684 9.75516 21.3582 8.00516 20.3525 6.69266C19.6109 5.72305 18.6085 4.9875 17.2872 4.44391C17.2702 4.43445 17.255 4.42204 17.2424 4.40727C16.7671 2.81586 15.4667 1.75 14 1.75C12.5332 1.75 11.2333 2.81586 10.7581 4.40562C10.7454 4.41988 10.7304 4.4319 10.7138 4.44117C7.63051 5.71047 6.13207 8.1457 6.13207 11.8863C6.13207 16.0076 5.40527 16.8859 4.20105 18.3395C4.11355 18.445 4.02441 18.5522 3.93363 18.6637C3.69913 18.9466 3.55056 19.2906 3.50549 19.6552C3.46042 20.0198 3.52075 20.3897 3.67933 20.7211C4.01676 21.432 4.7359 21.8734 5.55676 21.8734H22.4492C23.2662 21.8734 23.9804 21.4326 24.3189 20.7249C24.4782 20.3935 24.5391 20.0233 24.4944 19.6582C24.4497 19.2932 24.3014 18.9487 24.0668 18.6654ZM14 26.25C14.7902 26.2494 15.5656 26.0348 16.2438 25.6292C16.922 25.2236 17.4777 24.642 17.8521 23.946C17.8698 23.9127 17.8785 23.8753 17.8774 23.8376C17.8764 23.7999 17.8656 23.7631 17.8461 23.7308C17.8266 23.6985 17.7991 23.6718 17.7662 23.6532C17.7334 23.6347 17.6963 23.625 17.6586 23.625H10.3425C10.3047 23.6249 10.2675 23.6345 10.2346 23.653C10.2016 23.6715 10.1741 23.6982 10.1545 23.7305C10.135 23.7629 10.1241 23.7997 10.123 23.8375C10.1219 23.8752 10.1307 23.9126 10.1483 23.946C10.5227 24.6419 11.0784 25.2234 11.7565 25.6291C12.4346 26.0347 13.2098 26.2493 14 26.25Z" fill="#3E3E3E"/>
</svg>
