<svg width="28" height="28" viewBox="0 0 28 28" fill="none" xmlns="http://www.w3.org/2000/svg">
<g clip-path="url(#clip0_12_174)">
<rect width="28" height="28" rx="14" fill="#E4E4E4"/>
<path fill-rule="evenodd" clip-rule="evenodd" d="M11 10.25C11 9.45435 11.3161 8.69129 11.8787 8.12868C12.4413 7.56607 13.2044 7.25 14 7.25C14.7956 7.25 15.5587 7.56607 16.1213 8.12868C16.6839 8.69129 17 9.45435 17 10.25C17 11.0456 16.6839 11.8087 16.1213 12.3713C15.5587 12.9339 14.7956 13.25 14 13.25C13.2044 13.25 12.4413 12.9339 11.8787 12.3713C11.3161 11.8087 11 11.0456 11 10.25ZM11 14.75C10.0054 14.75 9.05161 15.1451 8.34835 15.8483C7.64509 16.5516 7.25 17.5054 7.25 18.5C7.25 19.0967 7.48705 19.669 7.90901 20.091C8.33097 20.5129 8.90326 20.75 9.5 20.75H18.5C19.0967 20.75 19.669 20.5129 20.091 20.091C20.5129 19.669 20.75 19.0967 20.75 18.5C20.75 17.5054 20.3549 16.5516 19.6517 15.8483C18.9484 15.1451 17.9946 14.75 17 14.75H11Z" fill="#3E3E3E"/>
</g>
<defs>
<clipPath id="clip0_12_174">
<rect width="28" height="28" rx="14" fill="white"/>
</clipPath>
</defs>
</svg>
