<svg width="30" height="30" viewBox="0 0 30 30" fill="none" xmlns="http://www.w3.org/2000/svg">
<path d="M1.66675 15H5.66675M24.3334 15H28.3334M15.0001 1.66667V5.66667M15.0001 24.3333V28.3333" stroke="#222222" stroke-width="2" stroke-linecap="round" stroke-linejoin="round"/>
<path d="M15.0001 24.3333C20.1547 24.3333 24.3334 20.1547 24.3334 15C24.3334 9.84534 20.1547 5.66667 15.0001 5.66667C9.84542 5.66667 5.66675 9.84534 5.66675 15C5.66675 20.1547 9.84542 24.3333 15.0001 24.3333Z" stroke="#222222" stroke-width="2" stroke-linecap="round" stroke-linejoin="round"/>
<path d="M15 19C17.2091 19 19 17.2091 19 15C19 12.7909 17.2091 11 15 11C12.7909 11 11 12.7909 11 15C11 17.2091 12.7909 19 15 19Z" stroke="#222222" stroke-width="2" stroke-linecap="round" stroke-linejoin="round"/>
</svg>
