<svg width="28" height="28" viewBox="0 0 28 28" fill="none" xmlns="http://www.w3.org/2000/svg">
<path d="M20.125 5.3375C21.6125 5.3375 22.7937 4.15625 22.7937 2.66875C22.7937 1.18125 21.5687 0 20.125 0C18.6812 0 17.4562 1.18125 17.4562 2.66875C17.4125 4.15625 18.6375 5.3375 20.125 5.3375ZM20.125 0.875C21.1312 0.875 21.9187 1.70625 21.9187 2.66875C21.9187 3.675 21.0875 4.4625 20.125 4.4625C19.1187 4.4625 18.3312 3.675 18.3312 2.66875C18.2875 1.70625 19.1187 0.875 20.125 0.875Z" fill="black"/>
<path d="M25.9875 13.3875L23.4937 11.6812C21.2625 7.2625 21.175 6.5625 19.8625 6.3L18.1562 5.95C16.8437 5.6875 15.3562 5.90625 14.7 6.3L11.6375 7.9625C11.3312 8.1375 11.1125 8.4 11.025 8.70625L9.75624 12.95C9.58123 13.5187 9.79999 14.175 10.3687 14.525L9.40623 16.975L7.34999 16.1C6.03749 15.575 4.54999 16.2312 4.02499 17.5437L1.39999 24.2375C1.31249 24.4562 1.39999 24.7188 1.61874 24.8062L4.63749 26.075C4.63749 26.775 5.03124 27.3875 5.68749 27.65C6.51874 28 7.48124 27.5625 7.83123 26.7312C8.09374 26.075 7.91874 25.2875 7.30624 24.8062L10.1062 17.7187L11.2875 14.7437C11.8125 14.6562 12.2062 14.3062 12.3812 13.825L13.5625 10.1937L15.4437 9.14375C14.6562 13.2562 14.5687 13.2562 14.5687 13.9562L14.0875 21.4812L12.0312 25.55C11.4625 26.6875 12.25 28 13.5187 28H13.5625C14.175 28 14.7875 27.65 15.05 27.125L17.4125 23.0125C17.6312 22.6187 17.7187 22.225 17.7187 21.7875V19.1187L19.5562 21.5687L19.775 26.3812C19.8187 27.2562 20.5187 27.9562 21.3937 28H21.4375C22.4 28 23.1875 27.2125 23.1875 26.2937L23.3187 20.9563C23.3187 20.475 23.2312 19.9937 23.0125 19.6C22.9687 19.5562 23.1875 19.8187 19.7312 14.525L20.475 12.1625L21.1312 13.475C21.2187 13.6937 21.3937 13.825 21.5687 13.9562L24.3687 15.7937C25.0687 16.2312 25.9875 16.0125 26.3812 15.3125C26.775 14.6125 26.6 13.825 25.9875 13.3875ZM7.04374 26.425C6.86874 26.8188 6.43124 27.0375 6.03749 26.8625C5.64374 26.6875 5.42499 26.25 5.59999 25.8562C5.77499 25.4625 6.21249 25.2437 6.60624 25.4187C6.78124 25.5062 6.95624 25.6375 7.04374 25.8125C7.08749 25.9875 7.08749 26.2062 7.04374 26.425ZM6.47499 24.5C5.86249 24.4125 5.24999 24.7188 4.89999 25.2437L2.36249 24.1937L4.37499 19.2063L7.91874 20.9125L6.47499 24.5ZM8.22499 20.125L4.68124 18.4187L4.85624 17.9375C5.20624 17.0625 6.21249 16.625 7.04374 16.975L9.09999 17.85L8.22499 20.125ZM16.6687 22.575L14.3062 26.6875C14.175 26.95 13.8687 27.125 13.5625 27.125C12.95 27.125 12.5562 26.4687 12.8625 25.9437L14.9625 21.7875C15.0062 21.7437 15.0062 21.6562 15.0062 21.6125L15.3125 15.8375L16.8875 17.8938V21.7437C16.8875 22.05 16.8 22.3125 16.6687 22.575ZM20.65 8.79375L18.9 14.3938C18.8562 14.525 18.9 14.6562 18.9437 14.7437L22.3125 19.95C22.4437 20.2562 22.5312 20.5625 22.5312 20.8687L22.4 26.2062C22.4 26.6875 22.0062 27.0812 21.4812 27.0812C21.0437 27.0812 20.7375 26.7312 20.6937 26.2937L20.475 21.35C20.475 21.2625 20.4312 21.175 20.3875 21.0875L15.8812 15.1375C15.6187 14.7875 15.4875 14.3937 15.4437 14C16.1875 9.975 16.4062 8.79375 16.45 8.4875C16.4937 8.18125 16.45 8.4875 16.45 8.44375C16.5375 8.09375 16.1437 7.7875 15.7937 7.9625L12.95 9.5375C12.8625 9.58125 12.775 9.66875 12.7312 9.8L11.55 13.5625C11.5062 13.7812 11.2875 13.9125 11.0687 13.9125C10.7625 13.9125 10.5 13.6062 10.5875 13.3L11.8562 9.05625C11.9 8.96875 11.9437 8.88125 12.0312 8.8375L15.0937 7.175C16.0125 6.825 17.0187 6.7375 17.9812 6.9125L19.6875 7.2625C20.4312 7.35 20.8687 8.09375 20.65 8.79375ZM25.6812 14.8313C25.5062 15.0938 25.1562 15.1812 24.9375 15.0062L22.1375 13.1687C22.0937 13.125 22.05 13.0812 22.0062 13.0375L20.9562 10.8937L21.3937 9.45L22.7937 12.25C22.8375 12.2937 22.8812 12.3812 22.925 12.425L25.5062 14.175C25.725 14.2625 25.8125 14.5688 25.6812 14.8313Z" fill="black"/>
</svg>
