<svg width="20" height="20" viewBox="0 0 20 20" fill="none" xmlns="http://www.w3.org/2000/svg">
<path d="M19.75 8.125V11.875C19.75 12.2728 19.592 12.6544 19.3107 12.9357C19.0294 13.217 18.6478 13.375 18.25 13.375H13.375V18.25C13.375 18.6478 13.217 19.0294 12.9357 19.3107C12.6544 19.592 12.2728 19.75 11.875 19.75H8.125C7.72718 19.75 7.34564 19.592 7.06434 19.3107C6.78304 19.0294 6.625 18.6478 6.625 18.25V13.375H1.75C1.35218 13.375 0.970644 13.217 0.68934 12.9357C0.408035 12.6544 0.25 12.2728 0.25 11.875V8.125C0.25 7.72718 0.408035 7.34564 0.68934 7.06434C0.970644 6.78304 1.35218 6.625 1.75 6.625H6.625V1.75C6.625 1.35218 6.78304 0.970644 7.06434 0.68934C7.34564 0.408035 7.72718 0.25 8.125 0.25H11.875C12.2728 0.25 12.6544 0.408035 12.9357 0.68934C13.217 0.970644 13.375 1.35218 13.375 1.75V6.625H18.25C18.6478 6.625 19.0294 6.78304 19.3107 7.06434C19.592 7.34564 19.75 7.72718 19.75 8.125Z" fill="white"/>
</svg>
